<svg width="934" height="746" viewBox="0 0 934 746" fill="none" xmlns="http://www.w3.org/2000/svg">
<path d="M795.875 353.367C612.987 263.543 317.526 263.543 135.713 353.367C-46.0994 443.192 -45.0454 588.807 137.74 678.632C320.526 768.456 616.231 768.456 797.942 678.632C979.654 588.807 978.782 443.243 795.875 353.367Z" fill="#F5F5F5"/>
<path d="M57.2927 542.757C70.8122 536.102 92.6824 536.102 106.121 542.757C119.559 549.412 119.478 560.17 105.959 566.808C92.4392 573.446 70.5689 573.463 57.1306 566.808C43.6922 560.153 43.7531 549.395 57.2927 542.757Z" fill="#E0E0E0"/>
<path d="M850.195 495.31C864.384 488.414 887.308 488.414 901.415 495.31C915.522 502.207 915.421 513.568 901.253 520.534C887.085 527.499 864.12 527.43 850.033 520.534C835.946 513.637 836.007 502.276 850.195 495.31Z" fill="#E0E0E0"/>
<path d="M626.405 375.383L106.79 633.478L84.7775 622.668L604.393 364.573L626.405 375.383Z" fill="#E0E0E0"/>
<path d="M764.559 512.206C713.886 487.328 632.061 487.328 581.753 512.206C537.283 534.171 532.357 568.204 566.734 592.996C538.985 591.531 510.244 596.031 489.063 606.496C451.869 624.875 452.072 654.684 489.488 673.063C526.905 691.441 587.408 691.441 624.581 673.063C654.174 658.442 660.072 636.581 642.398 619.013C684.963 624.185 731.946 618.685 765.147 602.272C815.495 577.445 815.211 537.119 764.559 512.206Z" fill="#E0E0E0"/>
<path d="M191.392 86.8246L191.555 133.047L198.142 136.306L197.96 83.6006L191.392 86.8246Z" fill="#F0F0F0"/>
<path d="M120.451 167.977L120.471 174.459L198.142 136.306L191.555 133.047L120.451 167.977Z" fill="#F5F5F5"/>
<path d="M205.905 71.9285L112.303 117.892L112.526 186.149L206.128 140.185L205.905 71.9285ZM120.471 174.459V167.977L120.269 121.754L191.372 86.8246L197.939 83.6005L198.122 136.306L120.471 174.459Z" fill="#E0E0E0"/>
<path d="M205.905 71.9285L199.318 68.67L105.715 114.634L112.303 117.892L205.905 71.9285Z" fill="#F5F5F5"/>
<path d="M105.715 114.634L105.938 182.89L112.526 186.149L112.303 117.892L105.715 114.634Z" fill="#F0F0F0"/>
<path d="M749.925 218.354L749.763 264.594L743.175 267.835L743.358 215.13L749.925 218.354Z" fill="#F0F0F0"/>
<path d="M820.887 299.507L820.866 305.989L743.175 267.835L749.763 264.594L820.887 299.507Z" fill="#F5F5F5"/>
<path d="M735.209 271.715L828.791 317.679L829.014 249.422L735.432 203.458L735.209 271.715ZM743.195 267.835L743.358 215.13L749.925 218.354L821.028 253.284L820.886 299.507V305.989L743.195 267.835Z" fill="#E0E0E0"/>
<path d="M735.432 203.458L742.02 200.2L835.602 246.164L829.014 249.422L735.432 203.458Z" fill="#F5F5F5"/>
<path d="M835.602 246.164L835.379 314.42L828.791 317.679L829.014 249.422L835.602 246.164Z" fill="#F0F0F0"/>
<path d="M330.64 134.219V122.996L330.032 123.289L328.938 123.841C319.188 128.858 309.398 136.719 300.298 145.236C298.778 146.633 297.298 148.064 295.818 149.495C288.136 156.977 280.637 164.908 272.894 172.322V190.459L282.197 185.89C294.322 166.195 310.765 148.656 330.64 134.219Z" fill="#EBEBEB"/>
<path d="M330.742 162.063V147.064C322.655 154.372 315.978 162.722 310.959 171.804L330.742 162.063Z" fill="#EBEBEB"/>
<path d="M310.898 171.804C315.917 162.722 322.594 154.372 330.681 147.064V134.22C310.807 148.673 294.37 166.23 282.258 185.942L310.939 171.856L310.898 171.804Z" fill="#FAFAFA"/>
<path d="M291.44 118.754L292.798 118.358C295.284 117.599 297.798 116.72 300.338 115.72L301.271 115.341L303.825 114.272L304.372 114.048C305.649 113.479 306.946 112.875 308.243 112.324L309.074 111.927L309.763 111.582C316.795 108.055 323.454 104.017 329.667 99.5138L330.519 98.8759V79.911C316.33 86.066 302.446 87.9797 291.217 85.0833C283.439 82.9301 276.814 78.4933 272.529 72.5665L272.691 121.858C279.082 121.581 285.394 120.536 291.44 118.754Z" fill="#FAFAFA"/>
<path d="M300.257 145.236C309.358 136.719 319.148 128.858 328.897 123.841L329.992 123.289L330.6 122.996V112.134C311.676 121.584 294.141 132.916 278.367 145.891C276.482 147.426 274.597 148.978 272.712 150.478V172.322C280.454 164.908 287.954 156.977 295.636 149.495C297.257 148.064 298.737 146.702 300.257 145.236Z" fill="#FAFAFA"/>
<path d="M330.559 112.22V98.8414L329.708 99.4793C323.495 103.983 316.835 108.021 309.804 111.548L309.115 111.893L308.284 112.289C306.986 112.91 305.689 113.513 304.412 114.013L303.865 114.237L301.311 115.306L300.379 115.686C297.852 116.686 295.339 117.565 292.839 118.323L291.481 118.72C285.438 120.519 279.125 121.581 272.732 121.875L272.833 150.443C274.718 148.943 276.603 147.391 278.488 145.857C294.22 132.933 311.7 121.642 330.559 112.22Z" fill="#EBEBEB"/>
<path d="M330.417 64.446V50.412C321.479 48.688 314.547 43.1019 310.898 34.8091L291.136 44.5157C294.598 50.7927 300.189 56.045 307.189 59.5968C314.19 63.1486 322.279 64.8375 330.417 64.446Z" fill="#FAFAFA"/>
<path d="M291.156 84.8936C302.385 87.859 316.31 85.9453 330.458 79.7213V64.3771C322.31 64.7791 314.207 63.0953 307.194 59.5428C300.182 55.9904 294.582 50.7323 291.116 44.4467L272.468 53.6016V72.5664C276.793 78.422 283.412 82.7884 291.156 84.8936Z" fill="#EBEBEB"/>
<path d="M333.519 20.482L269.185 52.0844L269.671 195.183L334.005 163.598L333.519 20.482ZM272.914 190.459V172.322V150.478L272.813 121.91L272.529 72.5664V53.6016L291.136 44.464L310.797 34.8091L330.235 25.2577V50.412V64.446V79.7903V98.7552V112.134V122.996V134.219V147.064V162.063L310.392 171.804L281.711 185.89L272.914 190.459Z" fill="white"/>
<path d="M330.357 50.412V25.2577L310.797 34.8091C314.486 43.1019 321.418 48.6362 330.357 50.412Z" fill="#EBEBEB"/>
<path d="M334.005 163.632L269.671 195.235V199.045L337.856 165.546L334.005 163.632Z" fill="#CACACA"/>
<path d="M333.519 20.4821L334.005 163.632L337.856 165.546L337.37 18.6028L333.519 20.4821Z" fill="#F0F0F0"/>
<path d="M347.727 3.36195L258.767 47.0329L259.334 214.268L348.274 170.58L347.727 3.36195ZM269.671 199.045V195.235L269.185 52.1361L333.519 20.5338L337.37 18.6545L337.876 165.598L269.671 199.045Z" fill="#E0E0E0"/>
<path d="M347.727 3.36195L340.39 0L251.449 43.6881L258.787 47.0329L347.727 3.36195Z" fill="#F5F5F5"/>
<path d="M251.449 43.6881L251.997 210.924L259.334 214.268L258.787 47.0329L251.449 43.6881Z" fill="#F0F0F0"/>
<path d="M168.813 104.376L188.19 117.358L188.23 130.047L123.735 161.736L123.694 149.047L135.997 128.271L147.024 135.564L143.132 145.874L148.787 136.719L168.813 104.376Z" fill="#E0E0E0"/>
<path d="M147.611 110.772C150.652 109.289 153.125 110.479 153.145 113.444C153.036 115.061 152.482 116.633 151.528 118.035C150.574 119.436 149.246 120.628 147.652 121.513C144.612 123.013 142.159 121.806 142.139 118.841C142.246 117.225 142.796 115.654 143.747 114.253C144.697 112.851 146.021 111.659 147.611 110.772Z" fill="#E0E0E0"/>
<path d="M772.525 235.906L753.127 248.905L753.087 261.594L817.583 293.266L817.623 280.576L805.34 259.801L794.294 267.094L798.205 277.404L792.53 268.249L772.525 235.906Z" fill="#E0E0E0"/>
<path d="M793.706 242.302C790.665 240.819 788.193 242.009 788.193 244.974C788.296 246.592 788.846 248.167 789.796 249.572C790.747 250.976 792.072 252.171 793.665 253.06C796.706 254.543 799.178 253.353 799.178 250.371C799.081 248.753 798.534 247.179 797.583 245.776C796.632 244.374 795.303 243.183 793.706 242.302Z" fill="#E0E0E0"/>
<path d="M48.8609 504.517L81.6155 505.344L114.37 504.517C115.789 523.344 111.472 542.447 105.513 551.877C104.1 554.285 101.831 556.252 99.0266 557.498C89.338 562.204 73.6498 562.204 64.1234 557.498C61.2784 556.234 58.9997 554.211 57.6373 551.739C51.739 542.309 47.4623 523.24 48.8609 504.517Z" fill="white"/>
<path d="M58.5292 493.121C45.6989 499.414 45.6381 509.637 58.3873 515.93C71.1365 522.223 91.8717 522.24 104.702 515.93C117.532 509.62 117.613 499.414 104.864 493.121C92.1149 486.828 71.3797 486.811 58.5292 493.121Z" fill="#EBEBEB"/>
<path d="M63.6167 495.621C53.6038 500.534 53.4822 508.517 63.4951 513.43C73.508 518.344 89.6218 518.344 99.6347 513.43C109.648 508.517 109.769 500.534 99.7563 495.621C89.7434 490.707 73.6499 490.707 63.6167 495.621Z" fill="#E0E0E0"/>
<g opacity="0.15">
<path d="M63.6167 495.621C53.6038 500.534 53.4822 508.517 63.4951 513.43C73.508 518.344 89.6218 518.344 99.6347 513.43C109.648 508.517 109.769 500.534 99.7563 495.621C89.7434 490.707 73.6499 490.707 63.6167 495.621Z" fill="black"/>
</g>
<path d="M27.7609 385.642C101.581 406.193 102.249 448.191 85.6086 478.104C81.4129 484.173 68.7042 487.414 57.6576 450.208L77.055 452.329L54.4551 442.588L48.5771 427.726L67.4273 428.916L43.5099 420.296C39.1021 408.48 33.8425 396.907 27.7609 385.642Z" fill="#7966FA"/>
<path opacity="0.2" d="M27.7609 385.642C101.581 406.193 102.249 448.191 85.6086 478.104C81.4129 484.173 68.7042 487.414 57.6576 450.208L77.055 452.329L54.4551 442.588L48.5771 427.726L67.4273 428.916L43.5099 420.296C39.1021 408.48 33.8425 396.907 27.7609 385.642Z" fill="black"/>
<path opacity="0.2" d="M27.7609 385.642C101.581 406.193 102.249 448.191 85.6086 478.104C81.4129 484.173 68.7042 487.414 57.6576 450.208L77.055 452.329L54.4551 442.588L48.5771 427.726L67.4273 428.916L43.5099 420.296C39.1021 408.48 33.8425 396.907 27.7609 385.642Z" fill="white"/>
<path d="M48.6379 396.141C87.5746 421.278 91.0812 450.14 80.0954 480.156C83.987 453.674 88.1827 426.899 48.6379 396.141Z" fill="white"/>
<path d="M152.8 428.313C80.0346 437.019 71.1973 476.035 80.8656 506.258C83.5817 512.482 94.7702 517.31 112.343 484.225L93.9189 483.449L116.863 477.57L125.234 464.501L107.459 462.949L131.396 458.363C137.79 447.978 144.938 437.941 152.8 428.313Z" fill="#7966FA"/>
<path opacity="0.2" d="M152.8 428.313C80.0346 437.019 71.1973 476.035 80.8656 506.258C83.5817 512.482 94.7702 517.31 112.343 484.225L93.9189 483.449L116.863 477.57L125.234 464.501L107.459 462.949L131.396 458.363C137.79 447.978 144.938 437.941 152.8 428.313Z" fill="white"/>
<path opacity="0.1" d="M152.8 428.313C80.0346 437.019 71.1973 476.035 80.8656 506.258C83.5817 512.482 94.7702 517.31 112.343 484.225L93.9189 483.449L116.863 477.57L125.234 464.501L107.459 462.949L131.396 458.363C137.79 447.978 144.938 437.941 152.8 428.313Z" fill="black"/>
<path d="M131.295 435.14C90.1285 453.036 81.2305 479.449 85.6086 508.948C87.149 483.724 88.4665 458.191 131.295 435.14Z" fill="white"/>
<path d="M6.47839 442.933C73.2039 443.864 86.2977 478.19 81.4737 506.327C79.8521 512.206 70.3865 517.62 50.2189 489.483L66.7584 487.018L45.2935 483.914L36.0306 472.932L51.8404 469.846L29.6661 467.984C22.5491 459.236 14.8052 450.87 6.47839 442.933Z" fill="#7966FA"/>
<path d="M26.7474 447.036C66.1909 459.26 77.7037 482.138 77.7037 509.206C72.9202 486.638 68.38 463.742 26.7474 447.036Z" fill="white"/>
<path opacity="0.2" d="M6.47839 442.933C73.2039 443.864 86.2977 478.19 81.4737 506.327C79.8521 512.206 70.3865 517.62 50.2189 489.483L66.7584 487.018L45.2935 483.914L36.0306 472.932L51.8404 469.846L29.6661 467.984C22.5491 459.236 14.8052 450.87 6.47839 442.933Z" fill="white"/>
<path d="M841.378 455.208L875.714 456.07L910.171 455.208C911.651 474.949 907.131 495.052 900.888 504.879C899.413 507.4 897.036 509.459 894.098 510.758C883.964 515.741 867.586 515.741 857.614 510.758C854.629 509.44 852.241 507.318 850.824 504.724C844.378 494.845 839.818 474.846 841.378 455.208Z" fill="white"/>
<path d="M851.513 443.243C838.054 449.864 837.973 460.57 851.351 467.191C864.728 473.811 886.477 473.794 899.996 467.191C913.516 460.587 913.516 449.864 900.159 443.243C886.801 436.623 864.972 436.64 851.513 443.243Z" fill="#EBEBEB"/>
<path d="M856.844 445.881C846.344 451.053 846.284 459.398 856.702 464.553C867.12 469.708 884.106 469.725 894.605 464.553C905.104 459.38 905.165 451.036 894.727 445.881C884.288 440.726 867.343 440.726 856.844 445.881Z" fill="#E0E0E0"/>
<g opacity="0.15">
<path d="M856.844 445.881C846.344 451.053 846.284 459.398 856.702 464.553C867.12 469.708 884.106 469.725 894.605 464.553C905.104 459.38 905.165 451.036 894.727 445.881C884.288 440.726 867.343 440.726 856.844 445.881Z" fill="black"/>
</g>
<path d="M893.247 395.417C898.821 389.521 905.307 384.228 910.435 378.021C913.941 373.78 916.86 368.608 915.381 363.591C914.563 361.285 913.005 359.219 910.881 357.626C908.758 356.033 906.153 354.976 903.361 354.574C897.696 353.848 891.915 354.942 887.146 357.643C882.456 360.318 878.342 363.66 874.984 367.522C855.651 388.351 846.504 414.719 849.446 441.14C849.519 444.167 850.632 447.11 852.648 449.605C853.876 450.841 855.496 451.749 857.314 452.223C859.133 452.697 861.073 452.716 862.904 452.277C872.268 449.915 871.012 439.157 872.552 432.847C875.848 419.153 882.928 406.323 893.206 395.417H893.247Z" fill="#7966FA"/>
<path opacity="0.2" d="M893.247 395.417C898.821 389.521 905.307 384.228 910.435 378.021C913.941 373.78 916.86 368.608 915.381 363.591C914.563 361.285 913.005 359.219 910.881 357.626C908.758 356.033 906.153 354.976 903.361 354.574C897.696 353.848 891.915 354.942 887.146 357.643C882.456 360.318 878.342 363.66 874.984 367.522C855.651 388.351 846.504 414.719 849.446 441.14C849.519 444.167 850.632 447.11 852.648 449.605C853.876 450.841 855.496 451.749 857.314 452.223C859.133 452.697 861.073 452.716 862.904 452.277C872.268 449.915 871.012 439.157 872.552 432.847C875.848 419.153 882.928 406.323 893.206 395.417H893.247Z" fill="white"/>
<path d="M862.357 444.26C862.538 444.23 862.702 444.149 862.823 444.03C862.945 443.912 863.016 443.762 863.026 443.605C863.674 430.83 868.559 387.228 903.888 362.574C903.973 362.517 904.044 362.446 904.096 362.365C904.149 362.284 904.181 362.196 904.193 362.104C904.204 362.012 904.194 361.92 904.162 361.832C904.131 361.744 904.079 361.662 904.01 361.591C903.871 361.449 903.673 361.358 903.457 361.339C903.241 361.32 903.025 361.373 902.854 361.487C866.999 386.607 862.053 430.709 861.384 443.64C861.379 443.824 861.458 444.003 861.606 444.139C861.754 444.274 861.958 444.355 862.175 444.364L862.357 444.26Z" fill="#F0F0F0"/>
<path d="M857.208 445.657C857.952 448.451 859.352 451.088 861.323 453.411C863.295 455.734 865.797 457.694 868.681 459.174C874.082 461.353 880.089 462.213 886.031 461.656C892.053 461.069 897.972 459.877 903.665 458.105C906.482 457.294 909.644 456.191 909.948 453.208C909.998 452.423 909.841 451.639 909.491 450.911C909.14 450.184 908.604 449.531 907.922 449.002C907.341 448.527 906.732 448.078 906.097 447.657C905.803 447.469 905.583 447.21 905.467 446.913C905.351 446.616 905.344 446.296 905.448 445.996C905.552 445.696 905.761 445.43 906.047 445.234C906.333 445.038 906.683 444.921 907.05 444.898C908.737 444.806 910.415 444.628 912.077 444.364C915.951 443.834 919.589 442.436 922.617 440.312C924.822 438.646 926.502 436.535 927.501 434.174C928.353 432.175 928.596 429.657 926.792 428.157C925.682 427.371 924.333 426.869 922.9 426.709C921.644 426.485 920.387 426.278 919.11 426.106C918.752 426.054 918.424 425.905 918.174 425.682C917.924 425.458 917.766 425.172 917.722 424.866C917.679 424.56 917.753 424.25 917.934 423.982C918.115 423.715 918.392 423.504 918.725 423.382L924.056 421.503C925.59 421.078 926.98 420.345 928.109 419.365C928.806 418.451 929.26 417.42 929.439 416.341C929.617 415.263 929.516 414.165 929.143 413.123C928.495 410.279 927.339 407.555 926.549 404.727C925.616 401.92 925.498 398.962 926.204 396.107C916.211 395.168 906.1 395.751 896.348 397.831C893.427 398.352 890.666 399.386 888.24 400.865C884.916 403.124 884.065 406.52 884.409 410.193C884.415 410.339 884.363 410.482 884.261 410.6C884.159 410.718 884.014 410.804 883.848 410.844C883.683 410.883 883.506 410.875 883.347 410.819C883.188 410.764 883.056 410.665 882.97 410.537L879.525 405.313C879.025 404.54 878.197 403.959 877.209 403.689C876.221 403.42 875.149 403.483 874.214 403.865C871.234 405.122 868.586 406.882 866.431 409.037C865.238 410.19 864.329 411.535 863.758 412.992C863.187 414.449 862.966 415.989 863.107 417.52C863.513 421.721 864.341 425.886 865.58 429.968C865.637 430.188 865.617 430.417 865.521 430.628C865.426 430.838 865.258 431.019 865.041 431.149C864.824 431.278 864.567 431.349 864.302 431.354C864.037 431.359 863.776 431.296 863.553 431.175L863.391 431.088C862.476 430.482 861.322 430.198 860.168 430.295C857.168 430.606 856.398 433.192 856.114 435.468C856.002 438.889 856.369 442.309 857.208 445.657Z" fill="#7966FA"/>
<path opacity="0.2" d="M857.208 445.657C857.952 448.451 859.352 451.088 861.323 453.411C863.295 455.734 865.797 457.694 868.681 459.174C874.082 461.353 880.089 462.213 886.031 461.656C892.053 461.069 897.972 459.877 903.665 458.105C906.482 457.294 909.644 456.191 909.948 453.208C909.998 452.423 909.841 451.639 909.491 450.911C909.14 450.184 908.604 449.531 907.922 449.002C907.341 448.527 906.732 448.078 906.097 447.657C905.803 447.469 905.583 447.21 905.467 446.913C905.351 446.616 905.344 446.296 905.448 445.996C905.552 445.696 905.761 445.43 906.047 445.234C906.333 445.038 906.683 444.921 907.05 444.898C908.737 444.806 910.415 444.628 912.077 444.364C915.951 443.834 919.589 442.436 922.617 440.312C924.822 438.646 926.502 436.535 927.501 434.174C928.353 432.175 928.596 429.657 926.792 428.157C925.682 427.371 924.333 426.869 922.9 426.709C921.644 426.485 920.387 426.278 919.11 426.106C918.752 426.054 918.424 425.905 918.174 425.682C917.924 425.458 917.766 425.172 917.722 424.866C917.679 424.56 917.753 424.25 917.934 423.982C918.115 423.715 918.392 423.504 918.725 423.382L924.056 421.503C925.59 421.078 926.98 420.345 928.109 419.365C928.806 418.451 929.26 417.42 929.439 416.341C929.617 415.263 929.516 414.165 929.143 413.123C928.495 410.279 927.339 407.555 926.549 404.727C925.616 401.92 925.498 398.962 926.204 396.107C916.211 395.168 906.1 395.751 896.348 397.831C893.427 398.352 890.666 399.386 888.24 400.865C884.916 403.124 884.065 406.52 884.409 410.193C884.415 410.339 884.363 410.482 884.261 410.6C884.159 410.718 884.014 410.804 883.848 410.844C883.683 410.883 883.506 410.875 883.347 410.819C883.188 410.764 883.056 410.665 882.97 410.537L879.525 405.313C879.025 404.54 878.197 403.959 877.209 403.689C876.221 403.42 875.149 403.483 874.214 403.865C871.234 405.122 868.586 406.882 866.431 409.037C865.238 410.19 864.329 411.535 863.758 412.992C863.187 414.449 862.966 415.989 863.107 417.52C863.513 421.721 864.341 425.886 865.58 429.968C865.637 430.188 865.617 430.417 865.521 430.628C865.426 430.838 865.258 431.019 865.041 431.149C864.824 431.278 864.567 431.349 864.302 431.354C864.037 431.359 863.776 431.296 863.553 431.175L863.391 431.088C862.476 430.482 861.322 430.198 860.168 430.295C857.168 430.606 856.398 433.192 856.114 435.468C856.002 438.889 856.369 442.309 857.208 445.657Z" fill="black"/>
<path opacity="0.2" d="M857.208 445.657C857.952 448.451 859.352 451.088 861.323 453.411C863.295 455.734 865.797 457.694 868.681 459.174C874.082 461.353 880.089 462.213 886.031 461.656C892.053 461.069 897.972 459.877 903.665 458.105C906.482 457.294 909.644 456.191 909.948 453.208C909.998 452.423 909.841 451.639 909.491 450.911C909.14 450.184 908.604 449.531 907.922 449.002C907.341 448.527 906.732 448.078 906.097 447.657C905.803 447.469 905.583 447.21 905.467 446.913C905.351 446.616 905.344 446.296 905.448 445.996C905.552 445.696 905.761 445.43 906.047 445.234C906.333 445.038 906.683 444.921 907.05 444.898C908.737 444.806 910.415 444.628 912.077 444.364C915.951 443.834 919.589 442.436 922.617 440.312C924.822 438.646 926.502 436.535 927.501 434.174C928.353 432.175 928.596 429.657 926.792 428.157C925.682 427.371 924.333 426.869 922.9 426.709C921.644 426.485 920.387 426.278 919.11 426.106C918.752 426.054 918.424 425.905 918.174 425.682C917.924 425.458 917.766 425.172 917.722 424.866C917.679 424.56 917.753 424.25 917.934 423.982C918.115 423.715 918.392 423.504 918.725 423.382L924.056 421.503C925.59 421.078 926.98 420.345 928.109 419.365C928.806 418.451 929.26 417.42 929.439 416.341C929.617 415.263 929.516 414.165 929.143 413.123C928.495 410.279 927.339 407.555 926.549 404.727C925.616 401.92 925.498 398.962 926.204 396.107C916.211 395.168 906.1 395.751 896.348 397.831C893.427 398.352 890.666 399.386 888.24 400.865C884.916 403.124 884.065 406.52 884.409 410.193C884.415 410.339 884.363 410.482 884.261 410.6C884.159 410.718 884.014 410.804 883.848 410.844C883.683 410.883 883.506 410.875 883.347 410.819C883.188 410.764 883.056 410.665 882.97 410.537L879.525 405.313C879.025 404.54 878.197 403.959 877.209 403.689C876.221 403.42 875.149 403.483 874.214 403.865C871.234 405.122 868.586 406.882 866.431 409.037C865.238 410.19 864.329 411.535 863.758 412.992C863.187 414.449 862.966 415.989 863.107 417.52C863.513 421.721 864.341 425.886 865.58 429.968C865.637 430.188 865.617 430.417 865.521 430.628C865.426 430.838 865.258 431.019 865.041 431.149C864.824 431.278 864.567 431.349 864.302 431.354C864.037 431.359 863.776 431.296 863.553 431.175L863.391 431.088C862.476 430.482 861.322 430.198 860.168 430.295C857.168 430.606 856.398 433.192 856.114 435.468C856.002 438.889 856.369 442.309 857.208 445.657Z" fill="white"/>
<path d="M873.039 458.484C874.935 451.667 877.651 445.035 881.146 438.692C881.149 438.593 881.175 438.497 881.224 438.408C881.273 438.319 881.343 438.239 881.43 438.174L881.977 437.14C881.006 429.234 878.312 421.552 874.032 414.486C873.957 414.406 873.903 414.314 873.874 414.216C873.845 414.117 873.841 414.015 873.863 413.915C873.884 413.815 873.931 413.72 874 413.637C874.068 413.554 874.157 413.485 874.26 413.433C874.363 413.382 874.478 413.35 874.597 413.34C874.715 413.33 874.835 413.341 874.948 413.374C875.061 413.407 875.165 413.46 875.251 413.53C875.338 413.6 875.406 413.685 875.451 413.779C879.462 420.368 882.115 427.494 883.295 434.847C890.085 423.261 900.929 409.693 917.752 399.796C917.839 399.741 917.938 399.702 918.043 399.681C918.148 399.66 918.257 399.657 918.363 399.674C918.47 399.69 918.571 399.724 918.661 399.775C918.751 399.826 918.828 399.892 918.887 399.969C918.949 400.043 918.993 400.128 919.016 400.217C919.039 400.306 919.042 400.398 919.023 400.488C919.004 400.577 918.964 400.663 918.906 400.74C918.848 400.816 918.773 400.883 918.684 400.934C901.415 411.158 890.531 425.313 883.903 437.14C892.786 433.724 902.647 432.586 912.279 433.864C912.385 433.881 912.485 433.915 912.575 433.965C912.665 434.014 912.742 434.079 912.802 434.154C912.863 434.23 912.905 434.314 912.927 434.404C912.948 434.493 912.949 434.585 912.928 434.675C912.901 434.812 912.824 434.94 912.707 435.039C912.591 435.137 912.442 435.203 912.279 435.226H911.975C911.813 435.226 896.186 432.795 882.687 439.209C879.227 445.475 876.531 452.026 874.64 458.76C874.609 458.895 874.53 459.018 874.414 459.114C874.298 459.209 874.151 459.272 873.991 459.294H873.667C873.562 459.278 873.462 459.244 873.373 459.194C873.284 459.144 873.208 459.079 873.15 459.003C873.091 458.927 873.051 458.842 873.032 458.753C873.013 458.664 873.015 458.572 873.039 458.484Z" fill="#F0F0F0"/>
<path d="M99.0874 309.024L99.0063 284.421L83.9262 277.128L84.0073 301.145V301.696L99.0874 309.024Z" fill="#7966FA"/>
<path d="M99.9995 593.893L99.0469 309.024L83.9667 301.696L84.8991 586.031C84.8027 586.951 84.9849 587.875 85.4285 588.717C85.8721 589.56 86.5621 590.291 87.4327 590.842L102.31 598.565C101.499 598.011 100.863 597.294 100.46 596.478C100.056 595.662 99.8981 594.774 99.9995 593.893Z" fill="#7966FA"/>
<path opacity="0.2" d="M99.9995 593.893L99.0469 309.024L83.9667 301.696L84.8991 586.031C84.8027 586.951 84.9849 587.875 85.4285 588.717C85.8721 589.56 86.5621 590.291 87.4327 590.842L102.31 598.565C101.499 598.011 100.863 597.294 100.46 596.478C100.056 595.662 99.8981 594.774 99.9995 593.893Z" fill="white"/>
<path d="M99.0672 284.369V270.215C99.2173 267.582 100.096 265.018 101.632 262.729C103.167 260.44 105.316 258.492 107.904 257.043L612.602 9.20658C613.497 8.66233 614.542 8.32396 615.636 8.22428C616.73 8.1246 617.835 8.26698 618.845 8.63763L603.948 0.862039C602.929 0.425236 601.788 0.235969 600.651 0.315056C599.513 0.394143 598.424 0.738516 597.502 1.3103L92.804 249.146C90.2068 250.583 88.0464 252.523 86.4998 254.806C84.9532 257.09 84.0644 259.652 83.9059 262.284V276.456V277.008L98.9861 284.318L99.0672 284.369Z" fill="#7966FA"/>
<path opacity="0.3" d="M99.0672 284.369V270.215C99.2173 267.582 100.096 265.018 101.632 262.729C103.167 260.44 105.316 258.492 107.904 257.043L612.602 9.20658C613.497 8.66233 614.542 8.32396 615.636 8.22428C616.73 8.1246 617.835 8.26698 618.845 8.63763L603.948 0.862039C602.929 0.425236 601.788 0.235969 600.651 0.315056C599.513 0.394143 598.424 0.738516 597.502 1.3103L92.804 249.146C90.2068 250.583 88.0464 252.523 86.4998 254.806C84.9532 257.09 84.0644 259.652 83.9059 262.284V276.456V277.008L98.9861 284.318L99.0672 284.369Z" fill="white"/>
<path opacity="0.2" d="M99.0874 309.024L99.0063 284.421L83.9262 277.128L84.0073 301.145V301.696L99.0874 309.024Z" fill="black"/>
<path opacity="0.2" d="M99.0874 309.024L99.0063 284.421L83.9262 277.128L84.0073 301.145V301.696L99.0874 309.024Z" fill="white"/>
<path d="M612.582 9.24107C617.507 6.82736 621.521 8.77557 621.541 13.603V27.7749L99.0671 284.369V270.215C99.2173 267.583 100.096 265.018 101.632 262.729C103.167 260.44 105.316 258.492 107.904 257.043L612.582 9.24107Z" fill="#7966FA"/>
<path d="M578.753 32.6885C581.388 31.3782 583.537 32.4299 583.537 34.9988C583.452 36.4057 582.977 37.7754 582.149 38.9953C581.321 40.2153 580.164 41.2505 578.773 42.0158C576.138 43.3261 573.99 42.2744 573.99 39.7055C574.069 38.2977 574.543 36.9264 575.371 35.7058C576.2 34.4852 577.359 33.4507 578.753 32.6885Z" fill="white"/>
<path d="M593.327 25.5164C595.962 24.2233 598.11 25.275 598.11 27.8439C598.031 29.2517 597.557 30.623 596.729 31.8436C595.9 33.0642 594.741 34.0987 593.347 34.8609C590.712 36.1539 588.563 35.1195 588.563 32.5334C588.652 31.1275 589.13 29.7593 589.958 28.54C590.785 27.3207 591.94 26.2848 593.327 25.5164Z" fill="white"/>
<path d="M607.88 18.3787C610.535 17.0684 612.663 18.1201 612.683 20.6889C612.601 22.1008 612.126 23.4759 611.298 24.7016C610.47 25.9273 609.312 26.9686 607.92 27.7404C605.285 29.0507 603.137 27.999 603.116 25.4302C603.199 24.0183 603.674 22.6432 604.502 21.4175C605.33 20.1919 606.487 19.1505 607.88 18.3787Z" fill="white"/>
<path d="M204.142 218.717C206.168 217.751 207.932 217.923 208.864 219.165L213.607 225.371C214.56 226.613 216.364 226.785 218.33 225.82L621.521 27.7404V52.3775L99.0874 309.058V284.421L114.573 276.818C116.758 275.607 118.417 273.821 119.296 271.732L123.957 260.905C124.821 258.819 126.476 257.036 128.66 255.836L204.142 218.717Z" fill="#E0E0E0"/>
<path d="M621.602 52.412L622.554 337.299C622.391 339.925 621.5 342.481 619.954 344.758C618.407 347.036 616.249 348.969 613.656 350.402L108.999 598.238C104.053 600.669 100.06 598.721 100.04 593.893L99.0874 309.024L621.602 52.412Z" fill="#7966FA"/>
<g opacity="0.4">
<path d="M621.602 52.412L622.554 337.299C622.391 339.925 621.5 342.481 619.954 344.758C618.407 347.036 616.249 348.969 613.656 350.402L108.999 598.238C104.053 600.669 100.06 598.721 100.04 593.893L99.0874 309.024L621.602 52.412Z" fill="white"/>
</g>
<path d="M600.948 42.9468C604.454 41.2227 607.292 42.602 607.312 46.0329C607.188 47.8951 606.551 49.7065 605.453 51.3207C604.354 52.9349 602.825 54.3069 600.988 55.3257L158.78 272.56C155.273 274.284 152.415 272.887 152.395 269.456C152.518 267.589 153.156 265.774 154.259 264.156C155.361 262.539 156.896 261.165 158.739 260.146L600.948 42.9468Z" fill="white"/>
<path d="M107.438 286.611C107.538 286.557 107.654 286.529 107.773 286.529C107.891 286.529 108.007 286.557 108.107 286.611C108.431 286.8 108.411 287.369 108.107 287.869L105.33 291.749L112.587 288.076C112.672 288.015 112.778 287.978 112.889 287.969C113 287.961 113.111 287.981 113.208 288.028C113.306 288.075 113.383 288.146 113.432 288.232C113.48 288.317 113.496 288.414 113.478 288.507C113.47 288.774 113.384 289.035 113.228 289.266C113.073 289.498 112.852 289.693 112.587 289.835L105.269 293.421L108.067 294.559C108.431 294.714 108.472 295.248 108.067 295.748C107.913 295.997 107.69 296.21 107.418 296.369C107.32 296.41 107.213 296.431 107.104 296.431C106.995 296.431 106.887 296.41 106.79 296.369L102.31 294.542L102.128 294.386V294.076V293.697L102.29 293.386L106.769 287.145C106.928 286.917 107.16 286.731 107.438 286.611Z" fill="#E0E0E0"/>
<path d="M123.289 278.835C123.383 278.794 123.487 278.773 123.593 278.773C123.698 278.773 123.802 278.794 123.897 278.835L128.376 280.576L128.538 280.749V281.059V281.438V281.525L128.396 281.835L123.937 288.076C123.788 288.289 123.579 288.467 123.329 288.593C123.233 288.647 123.12 288.676 123.005 288.676C122.889 288.676 122.777 288.647 122.68 288.593C122.336 288.421 122.356 287.852 122.68 287.335L125.457 283.473L118.242 287.128C117.755 287.352 117.35 287.128 117.35 286.68C117.369 286.419 117.458 286.166 117.608 285.939C117.759 285.712 117.969 285.517 118.221 285.369L125.559 281.783L122.762 280.645C122.376 280.49 122.376 279.956 122.762 279.421C122.878 279.192 123.059 278.991 123.289 278.835Z" fill="#E0E0E0"/>
<path d="M138.328 271.439C139.227 270.943 140.32 270.769 141.369 270.956L142.037 270.198C142.169 270.045 142.334 269.916 142.524 269.818C142.683 269.778 142.852 269.778 143.01 269.818C143.314 269.818 143.456 270.129 143.416 270.508L143.031 272.853C142.98 273.134 142.847 273.401 142.645 273.628C142.515 273.781 142.349 273.91 142.159 274.008L141.936 274.094L139.767 274.611C139.692 274.633 139.612 274.639 139.534 274.63C139.455 274.62 139.38 274.595 139.315 274.557C139.25 274.518 139.197 274.467 139.159 274.408C139.121 274.348 139.101 274.282 139.098 274.215C139.067 273.833 139.212 273.455 139.504 273.163L139.706 272.922C139.227 272.936 138.759 273.055 138.348 273.266C137.414 273.784 136.635 274.481 136.075 275.302C135.515 276.122 135.19 277.043 135.126 277.99C135.126 279.714 136.585 280.439 138.369 279.559C139.675 278.855 140.667 277.799 141.186 276.559C141.331 276.216 141.601 275.92 141.956 275.715C142.086 275.651 142.232 275.615 142.382 275.611C142.828 275.611 142.99 276.094 142.747 276.628C141.9 278.506 140.365 280.102 138.369 281.18C135.612 282.525 133.362 281.439 133.342 278.732C133.446 277.269 133.951 275.848 134.817 274.582C135.683 273.315 136.885 272.239 138.328 271.439Z" fill="#E0E0E0"/>
<g opacity="0.3">
<path d="M107.438 286.611C107.538 286.557 107.654 286.529 107.773 286.529C107.891 286.529 108.007 286.557 108.107 286.611C108.431 286.8 108.411 287.369 108.107 287.869L105.33 291.749L112.587 288.076C112.672 288.015 112.778 287.978 112.889 287.969C113 287.961 113.111 287.981 113.208 288.028C113.306 288.075 113.383 288.146 113.432 288.232C113.48 288.317 113.496 288.414 113.478 288.507C113.47 288.774 113.384 289.035 113.228 289.266C113.073 289.498 112.852 289.693 112.587 289.835L105.269 293.421L108.067 294.559C108.431 294.714 108.472 295.248 108.067 295.748C107.913 295.997 107.69 296.21 107.418 296.369C107.32 296.41 107.213 296.431 107.104 296.431C106.995 296.431 106.887 296.41 106.79 296.369L102.31 294.542L102.128 294.386V294.076V293.697L102.29 293.386L106.769 287.145C106.928 286.917 107.16 286.731 107.438 286.611Z" fill="black"/>
</g>
<g opacity="0.3">
<path d="M123.289 278.835C123.383 278.794 123.487 278.773 123.593 278.773C123.698 278.773 123.802 278.794 123.897 278.835L128.376 280.576L128.538 280.749V281.059V281.438V281.525L128.396 281.835L123.937 288.076C123.788 288.289 123.579 288.467 123.329 288.593C123.233 288.647 123.12 288.676 123.005 288.676C122.889 288.676 122.777 288.647 122.68 288.593C122.336 288.421 122.356 287.852 122.68 287.335L125.457 283.473L118.242 287.128C117.755 287.352 117.35 287.128 117.35 286.68C117.369 286.419 117.458 286.166 117.608 285.939C117.759 285.712 117.969 285.517 118.221 285.369L125.559 281.783L122.762 280.645C122.376 280.49 122.376 279.956 122.762 279.421C122.878 279.192 123.059 278.991 123.289 278.835Z" fill="black"/>
</g>
<g opacity="0.3">
<path d="M138.328 271.439C139.227 270.943 140.32 270.769 141.369 270.956L142.037 270.198C142.169 270.045 142.334 269.916 142.524 269.818C142.683 269.778 142.852 269.778 143.01 269.818C143.314 269.818 143.456 270.129 143.416 270.508L143.031 272.853C142.98 273.134 142.847 273.401 142.645 273.628C142.515 273.781 142.349 273.91 142.159 274.008L141.936 274.094L139.767 274.611C139.692 274.633 139.612 274.639 139.534 274.63C139.455 274.62 139.38 274.595 139.315 274.557C139.25 274.518 139.197 274.467 139.159 274.408C139.121 274.348 139.101 274.282 139.098 274.215C139.067 273.833 139.212 273.455 139.504 273.163L139.706 272.922C139.227 272.936 138.759 273.055 138.348 273.266C137.414 273.784 136.635 274.481 136.075 275.302C135.515 276.122 135.19 277.043 135.126 277.99C135.126 279.714 136.585 280.439 138.369 279.559C139.675 278.855 140.667 277.799 141.186 276.559C141.331 276.216 141.601 275.92 141.956 275.715C142.086 275.651 142.232 275.615 142.382 275.611C142.828 275.611 142.99 276.094 142.747 276.628C141.9 278.506 140.365 280.102 138.369 281.18C135.612 282.525 133.362 281.439 133.342 278.732C133.446 277.269 133.951 275.848 134.817 274.582C135.683 273.315 136.885 272.239 138.328 271.439Z" fill="black"/>
</g>
<g opacity="0.6">
<path d="M598.414 135.702L598.88 238.13C598.89 242.767 597.467 247.325 594.752 251.347C592.038 255.368 588.128 258.712 583.415 261.043L322.533 389.797C320.963 390.572 319.182 390.981 317.367 390.985C315.552 390.988 313.769 390.585 312.195 389.817C310.622 389.048 309.314 387.94 308.403 386.605C307.492 385.27 307.011 383.754 307.007 382.211L306.561 279.783C306.543 275.147 307.96 270.588 310.672 266.566C313.383 262.543 317.292 259.199 322.006 256.87L582.888 128.151C584.454 127.377 586.232 126.968 588.044 126.963C589.855 126.958 591.636 127.358 593.208 128.122C594.781 128.887 596.089 129.99 597.003 131.32C597.916 132.65 598.403 134.162 598.414 135.702Z" fill="white"/>
</g>
<path d="M492.63 197.717L440.275 282.301L425.459 306.265L435.654 279.283L406.791 260.215L374.644 314.541L374.766 347.729L543.465 264.87L543.343 231.682L492.63 197.717Z" fill="#7966FA"/>
<path d="M437.316 242.561C441.488 240.246 444.961 237.128 447.45 233.458C449.94 229.789 451.378 225.671 451.646 221.441C451.646 213.682 445.16 210.544 437.215 214.441C433.039 216.752 429.564 219.87 427.074 223.54C424.584 227.21 423.148 231.329 422.885 235.561C422.905 243.25 429.371 246.457 437.316 242.561Z" fill="#7966FA"/>
<g opacity="0.3">
<path d="M492.63 197.717L440.275 282.301L425.459 306.265L435.654 279.283L406.791 260.215L374.644 314.541L374.766 347.729L543.465 264.87L543.343 231.682L492.63 197.717Z" fill="white"/>
<path d="M437.316 242.561C441.488 240.246 444.961 237.128 447.45 233.458C449.94 229.789 451.378 225.671 451.646 221.441C451.646 213.682 445.16 210.544 437.215 214.441C433.039 216.752 429.564 219.87 427.074 223.54C424.584 227.21 423.148 231.329 422.885 235.561C422.905 243.25 429.371 246.457 437.316 242.561Z" fill="white"/>
</g>
<g opacity="0.6">
<path d="M444.572 349.471L444.775 411.331C444.776 413.424 444.13 415.482 442.903 417.297C441.676 419.112 439.91 420.622 437.782 421.675L313.777 482.897C313.065 483.244 312.259 483.427 311.439 483.426C310.618 483.425 309.813 483.24 309.102 482.891C308.392 482.542 307.802 482.04 307.392 481.436C306.981 480.832 306.765 480.147 306.764 479.449L306.561 417.572C306.55 415.476 307.191 413.415 308.419 411.598C309.648 409.782 311.419 408.274 313.554 407.227L437.519 346.04C438.23 345.684 439.038 345.495 439.863 345.491C440.687 345.487 441.499 345.668 442.215 346.016C442.93 346.365 443.525 346.867 443.939 347.474C444.353 348.08 444.572 348.769 444.572 349.471Z" fill="white"/>
</g>
<path d="M363.355 401.296L401.764 404.107L363.496 444.553L363.355 401.296Z" fill="#7966FA"/>
<g opacity="0.3">
<path d="M363.355 401.296L401.764 404.107L363.496 444.553L363.355 401.296Z" fill="white"/>
</g>
<g opacity="0.6">
<path d="M596.995 274.284L597.198 336.143C597.205 338.238 596.562 340.298 595.334 342.114C594.106 343.93 592.337 345.439 590.205 346.488L466.868 406.607C466.156 406.958 465.348 407.144 464.525 407.145C463.701 407.146 462.892 406.963 462.179 406.613C461.466 406.263 460.873 405.76 460.462 405.153C460.05 404.547 459.834 403.859 459.835 403.158L459.632 341.298C459.632 339.205 460.277 337.147 461.504 335.332C462.732 333.517 464.497 332.007 466.625 330.954L589.962 270.835C590.674 270.484 591.482 270.298 592.305 270.297C593.129 270.296 593.938 270.479 594.651 270.829C595.364 271.179 595.957 271.682 596.368 272.289C596.78 272.895 596.996 273.583 596.995 274.284Z" fill="white"/>
</g>
<path d="M514.521 323.868L552.91 326.678L514.663 367.125L514.521 323.868Z" fill="#7966FA"/>
<g opacity="0.3">
<path d="M514.521 323.868L552.91 326.678L514.663 367.125L514.521 323.868Z" fill="white"/>
</g>
<g opacity="0.7">
<path d="M236.673 269.715L236.714 285.318L131.781 336.85L131.741 321.265L236.673 269.715Z" fill="white"/>
<path d="M194.554 314.541L194.595 322.299L131.842 353.126L131.822 345.367L194.554 314.541Z" fill="white"/>
<path d="M364.409 207.062L364.449 216.165L334.066 231.078L334.025 221.992L364.409 207.062Z" fill="white"/>
<path d="M422.682 178.442L422.702 187.545L382.205 207.441L382.184 198.338L422.682 178.442Z" fill="white"/>
<path d="M539.816 120.927L539.837 130.03L509.453 144.943L509.433 135.857L539.816 120.927Z" fill="white"/>
<path d="M598.09 92.3071L598.11 101.41L557.613 121.306L557.572 112.203L598.09 92.3071Z" fill="white"/>
<path d="M488.576 146.081L488.597 155.184L440.255 178.942L440.215 169.839L488.576 146.081Z" fill="white"/>
</g>
<g opacity="0.7">
<path d="M237.484 357.367L237.504 364.246L131.964 416.072L131.943 409.193L237.484 357.367Z" fill="white"/>
<path d="M173.414 400.779L173.454 407.641L132.004 428.002L131.984 421.123L173.414 400.779Z" fill="white"/>
<path d="M237.606 397.676L237.626 404.555L132.106 456.381L132.085 449.502L237.606 397.676Z" fill="white"/>
<path d="M237.565 385.745L237.585 392.607L132.065 444.433L132.045 437.571L237.565 385.745Z" fill="white"/>
<path d="M237.444 345.436L237.464 352.298L131.923 404.124L131.903 397.262L237.444 345.436Z" fill="white"/>
<path d="M214.864 420.796L214.884 427.657L132.146 468.294L132.106 461.432L214.864 420.796Z" fill="white"/>
</g>
<g opacity="0.7">
<path d="M234.383 463.932C243.463 459.467 250.862 463.053 250.902 471.932C250.943 480.811 243.585 491.638 234.484 496.069L146.152 539.464C137.051 543.929 129.653 540.361 129.633 531.464C129.612 522.568 136.95 511.758 146.03 507.327L234.383 463.932Z" fill="#7966FA"/>
</g>
<path d="M177.447 501.896L177.528 513.93L173.738 515.775L173.677 510.31L171.022 516.034L169.198 516.93L166.502 514.034L166.522 519.327L162.732 521.189L162.691 509.138L166.097 507.465L170.15 511.913L174.042 503.569L177.447 501.896Z" fill="white"/>
<path d="M185.96 497.448C190.014 495.483 192.913 496.69 192.933 500.327C192.806 502.308 192.107 504.231 190.898 505.927C189.689 507.623 188.007 509.04 186.001 510.051C181.947 512.017 179.028 510.81 179.008 507.172C179.137 505.19 179.839 503.265 181.052 501.569C182.265 499.873 183.951 498.458 185.96 497.448ZM185.96 506.758C186.812 506.285 187.511 505.638 187.992 504.876C188.474 504.114 188.723 503.261 188.717 502.396C188.717 500.517 187.48 499.983 185.94 500.672C185.092 501.147 184.397 501.795 183.919 502.557C183.442 503.319 183.195 504.171 183.204 505.034C183.204 506.913 184.44 507.431 185.96 506.758Z" fill="white"/>
<path d="M203.675 497.362L206.29 499.793L201.851 501.983L199.824 499.983L198.689 500.534V503.586L194.635 505.62V493.552L200.574 490.621C204 488.897 206.189 489.621 206.209 492.345C206.12 494.226 205.218 496.012 203.675 497.362ZM200.108 496.724C200.603 496.523 201.023 496.208 201.32 495.815C201.617 495.422 201.78 494.967 201.79 494.5C201.79 493.621 201.243 493.345 200.108 493.914L198.588 494.655V497.466L200.088 496.724" fill="white"/>
<path d="M217.56 482.19L217.58 485.276L211.641 488.173V489.586L216.85 487.035L216.871 489.948L211.661 492.5V494.104L217.823 491.069V494.138L207.587 499.155L207.547 487.121L217.56 482.19Z" fill="white"/>
<path d="M473.476 662.063L473.456 669.597L413.176 639.995L413.196 632.461L473.476 662.063Z" fill="#7966FA"/>
<path d="M473.517 650.684L473.476 658.236L448.971 646.202L448.991 638.633L473.517 650.684Z" fill="#7966FA"/>
<path d="M373.57 624.375L373.55 631.926L330.154 610.617L330.174 603.065L373.57 624.375Z" fill="#7966FA"/>
<path d="M399.778 625.875L399.758 633.409L330.194 599.255L330.215 591.703L399.778 625.875Z" fill="#7966FA"/>
<path d="M437.316 632.909L437.296 640.461L368.442 606.651L361.733 603.358L329.769 587.669L329.789 580.101L361.774 595.807L368.483 599.1L437.316 632.909Z" fill="#7966FA"/>
<path d="M417.25 596.169L417.229 603.703L330.316 561.032L330.357 553.498L417.25 596.169Z" fill="#7966FA"/>
<path d="M412.264 582.325L412.223 589.859L395.258 581.514L395.278 573.98L412.264 582.325Z" fill="#7966FA"/>
<path d="M407.318 640.96L407.298 648.495L382.793 636.461L382.813 628.926L407.318 640.96Z" fill="#7966FA"/>
<path d="M473.638 612.461L473.618 619.996L425.297 596.272L425.317 588.721L473.638 612.461Z" fill="#7966FA"/>
<path d="M473.679 601.1L473.658 608.634L439.87 592.048L432.411 588.393L387.637 566.394L387.657 558.86L432.431 580.842L439.89 584.514L473.679 601.1Z" fill="#7966FA"/>
<path d="M437.559 560.584L437.519 568.118L381.293 540.498L381.313 532.964L437.559 560.584Z" fill="#7966FA"/>
<path d="M381.191 567.067L381.171 574.601L330.357 549.653L330.377 542.119L381.191 567.067Z" fill="#7966FA"/>
<path d="M373.813 552.067L373.793 559.601L330.397 538.292L330.417 530.757L373.813 552.067Z" fill="#7966FA"/>
<path d="M368.706 526.775L368.685 534.309L330.012 515.327L330.032 507.775L368.706 526.775Z" fill="#7966FA"/>
<path d="M400.021 553.55L400.001 561.084L330.438 526.93L330.458 519.396L400.021 553.55Z" fill="#7966FA"/>
<path d="M387.231 524.482L387.211 532.033L330.053 503.965L330.073 496.414L387.231 524.482Z" fill="#7966FA"/>
<path d="M473.719 589.738L473.699 597.29L413.419 567.687L413.439 560.136L473.719 589.738Z" fill="#7966FA"/>
<path d="M473.76 578.359L473.719 585.893L449.214 573.859L449.234 566.325L473.76 578.359Z" fill="#7966FA"/>
<g opacity="0.6">
<path d="M473.476 662.063L473.456 669.597L413.176 639.995L413.196 632.461L473.476 662.063Z" fill="white"/>
<path d="M473.517 650.684L473.476 658.236L448.971 646.202L448.991 638.633L473.517 650.684Z" fill="white"/>
<path d="M373.57 624.375L373.55 631.926L330.154 610.617L330.174 603.065L373.57 624.375Z" fill="white"/>
<path d="M399.778 625.875L399.758 633.409L330.194 599.255L330.215 591.703L399.778 625.875Z" fill="white"/>
<path d="M437.316 632.909L437.296 640.461L368.442 606.651L361.733 603.358L329.769 587.669L329.789 580.101L361.774 595.807L368.483 599.1L437.316 632.909Z" fill="white"/>
<path d="M417.25 596.169L417.23 603.703L330.316 561.032L330.357 553.498L417.25 596.169Z" fill="white"/>
<path d="M412.264 582.325L412.223 589.859L395.258 581.514L395.278 573.98L412.264 582.325Z" fill="white"/>
<path d="M407.318 640.96L407.298 648.495L382.793 636.461L382.813 628.926L407.318 640.96Z" fill="white"/>
<path d="M473.638 612.461L473.618 619.996L425.297 596.272L425.317 588.721L473.638 612.461Z" fill="white"/>
<path d="M473.679 601.1L473.658 608.634L439.87 592.048L432.411 588.393L387.637 566.394L387.657 558.86L432.431 580.842L439.89 584.514L473.679 601.1Z" fill="white"/>
<path d="M437.559 560.584L437.519 568.118L381.293 540.498L381.313 532.964L437.559 560.584Z" fill="white"/>
<path d="M381.191 567.066L381.171 574.601L330.357 549.653L330.377 542.119L381.191 567.066Z" fill="white"/>
<path d="M373.813 552.067L373.793 559.601L330.397 538.292L330.417 530.757L373.813 552.067Z" fill="white"/>
<path d="M368.706 526.775L368.685 534.309L330.012 515.327L330.032 507.775L368.706 526.775Z" fill="white"/>
<path d="M400.021 553.55L400.001 561.084L330.438 526.93L330.458 519.396L400.021 553.55Z" fill="white"/>
<path d="M387.231 524.482L387.211 532.033L330.053 503.965L330.073 496.414L387.231 524.482Z" fill="white"/>
<path d="M473.719 589.738L473.699 597.29L413.419 567.687L413.439 560.136L473.719 589.738Z" fill="white"/>
<path d="M473.76 578.359L473.719 585.893L449.214 573.859L449.234 566.325L473.76 578.359Z" fill="white"/>
</g>
<path d="M300.663 515.241L280.11 504.896C279.955 504.818 279.827 504.707 279.738 504.574C279.649 504.441 279.603 504.291 279.603 504.138V395.176L253.091 382.125L254.125 380.607L281.143 393.917C281.302 393.993 281.434 394.103 281.527 394.236C281.619 394.37 281.669 394.521 281.671 394.676V503.689L301.717 513.724L300.663 515.241Z" fill="#7966FA"/>
<path d="M306.581 509.965C308.711 511.15 310.483 512.744 311.754 514.619C313.025 516.494 313.76 518.597 313.898 520.758C313.898 524.723 310.594 526.327 306.52 524.327C304.391 523.142 302.619 521.548 301.347 519.673C300.076 517.798 299.342 515.695 299.203 513.534C299.223 509.568 302.527 507.965 306.581 509.965Z" fill="#7966FA"/>
<path d="M257.429 376.004C259.562 377.187 261.338 378.78 262.613 380.655C263.888 382.53 264.625 384.634 264.766 386.797C264.766 390.762 261.442 392.366 257.388 390.366C255.255 389.183 253.479 387.59 252.204 385.715C250.929 383.84 250.192 381.736 250.051 379.573C249.99 375.625 253.375 374.022 257.429 376.004Z" fill="#7966FA"/>
<g opacity="0.2">
<path d="M300.663 515.241L280.11 504.896C279.955 504.818 279.827 504.707 279.738 504.574C279.649 504.441 279.603 504.291 279.603 504.138V395.176L253.091 382.125L254.125 380.607L281.143 393.917C281.302 393.993 281.434 394.103 281.527 394.236C281.619 394.37 281.669 394.521 281.671 394.676V503.689L301.717 513.724L300.663 515.241Z" fill="white"/>
<path d="M306.581 509.965C308.711 511.15 310.483 512.744 311.754 514.619C313.025 516.494 313.76 518.597 313.898 520.758C313.898 524.723 310.594 526.327 306.52 524.327C304.391 523.142 302.619 521.548 301.347 519.673C300.076 517.798 299.342 515.695 299.203 513.534C299.223 509.569 302.527 507.965 306.581 509.965Z" fill="white"/>
<path d="M257.429 376.004C259.562 377.187 261.338 378.78 262.613 380.655C263.888 382.53 264.625 384.634 264.766 386.797C264.766 390.762 261.442 392.366 257.388 390.366C255.255 389.183 253.479 387.59 252.204 385.715C250.929 383.84 250.192 381.736 250.051 379.573C249.99 375.625 253.375 374.022 257.429 376.004Z" fill="white"/>
</g>
<path d="M831.953 152.908L831.913 160.46L771.653 130.858L771.673 123.306L831.953 152.908Z" fill="#7966FA"/>
<path d="M831.974 141.53L831.953 149.098L807.448 137.047L807.468 129.495L831.974 141.53Z" fill="#7966FA"/>
<path d="M732.047 115.237L732.027 122.772L688.631 101.462L688.652 93.9278L732.047 115.237Z" fill="#7966FA"/>
<path d="M758.255 116.72L758.235 124.272L688.672 90.1003L688.692 82.5661L758.255 116.72Z" fill="#7966FA"/>
<path d="M795.773 123.754L795.753 131.323L726.919 97.5138L720.21 94.2209L688.246 78.5145L688.267 70.9458L720.231 86.6522L726.94 89.9451L795.773 123.754Z" fill="#7966FA"/>
<path d="M765.795 131.806L765.755 139.34L741.27 127.323L741.29 119.772L765.795 131.806Z" fill="#7966FA"/>
<g opacity="0.6">
<path d="M831.953 152.908L831.913 160.46L771.653 130.858L771.673 123.306L831.953 152.908Z" fill="white"/>
<path d="M831.974 141.53L831.953 149.098L807.448 137.047L807.468 129.495L831.974 141.53Z" fill="white"/>
<path d="M732.047 115.237L732.027 122.772L688.631 101.462L688.652 93.9278L732.047 115.237Z" fill="white"/>
<path d="M758.255 116.72L758.235 124.272L688.672 90.1003L688.692 82.5661L758.255 116.72Z" fill="white"/>
<path d="M795.773 123.754L795.753 131.323L726.919 97.5138L720.21 94.2209L688.246 78.5145L688.267 70.9458L720.231 86.6522L726.94 89.9451L795.773 123.754Z" fill="white"/>
<path d="M765.795 131.806L765.755 139.34L741.27 127.323L741.29 119.772L765.795 131.806Z" fill="white"/>
</g>
<path d="M831.974 182.304L831.953 189.855L807.448 177.821L807.468 170.27L831.974 182.304Z" fill="#7966FA"/>
<path d="M758.255 157.495L758.235 165.029L688.672 130.875L688.692 123.341L758.255 157.495Z" fill="#7966FA"/>
<path d="M795.773 164.529L795.753 172.08L726.919 138.288L720.21 134.978L688.246 119.289L688.267 111.72L720.231 127.427L726.94 130.72L795.773 164.529Z" fill="#7966FA"/>
<g opacity="0.6">
<path d="M831.974 182.304L831.953 189.855L807.448 177.821L807.468 170.27L831.974 182.304Z" fill="white"/>
<path d="M758.255 157.495L758.235 165.029L688.672 130.875L688.692 123.341L758.255 157.495Z" fill="white"/>
<path d="M795.773 164.529L795.753 172.08L726.919 138.288L720.21 134.978L688.246 119.289L688.267 111.72L720.231 127.427L726.94 130.72L795.773 164.529Z" fill="white"/>
</g>
<path d="M724.852 158.77C720.798 156.77 717.494 158.374 717.494 162.339C717.559 164.264 718.156 166.148 719.238 167.839L615.866 218.734L583.273 202.562C583.116 200.419 582.373 198.336 581.102 196.48C579.832 194.625 578.07 193.047 575.956 191.873C571.902 189.873 568.598 191.476 568.578 195.441C568.717 197.603 569.451 199.706 570.722 201.581C571.994 203.456 573.766 205.05 575.895 206.234C579.28 207.958 582.097 207.044 582.969 204.51L615.866 220.837L720.231 169.27C721.381 170.808 722.927 172.105 724.751 173.063C728.804 175.063 732.108 173.459 732.129 169.494C731.982 167.348 731.248 165.261 729.985 163.399C728.721 161.537 726.964 159.952 724.852 158.77Z" fill="#7966FA"/>
<path opacity="0.2" d="M724.852 158.77C720.798 156.77 717.494 158.374 717.494 162.339C717.559 164.264 718.156 166.148 719.238 167.839L615.866 218.734L583.273 202.562C583.116 200.419 582.373 198.336 581.102 196.48C579.832 194.625 578.07 193.047 575.956 191.873C571.902 189.873 568.598 191.476 568.578 195.441C568.717 197.603 569.451 199.706 570.722 201.581C571.994 203.456 573.766 205.05 575.895 206.234C579.28 207.958 582.097 207.044 582.969 204.51L615.866 220.837L720.231 169.27C721.381 170.808 722.927 172.105 724.751 173.063C728.804 175.063 732.108 173.459 732.129 169.494C731.982 167.348 731.248 165.261 729.985 163.399C728.721 161.537 726.964 159.952 724.852 158.77Z" fill="white"/>
<path d="M606.218 426.554C588.948 436.761 569.49 443.795 555.079 457.501C528.121 483.035 527.493 524.154 548.654 553.36C569.814 582.566 609.177 600.134 649.289 604.169C691.327 608.375 735.432 598.496 768.43 575.928C801.428 553.36 822.386 518.085 822.366 482.087C822.346 446.088 800.678 410.227 765.228 390.555C732.797 372.608 686.381 367.487 653.931 388.021C637.513 398.365 626.588 413.727 610.211 424.14C608.873 424.968 607.555 425.761 606.218 426.554Z" fill="#37474F"/>
<path opacity="0.2" d="M606.218 426.554C588.948 436.761 569.49 443.795 555.079 457.501C528.121 483.035 527.493 524.154 548.654 553.36C569.814 582.566 609.177 600.134 649.289 604.169C691.327 608.375 735.432 598.496 768.43 575.928C801.428 553.36 822.386 518.085 822.366 482.087C822.346 446.088 800.678 410.227 765.228 390.555C732.797 372.608 686.381 367.487 653.931 388.021C637.513 398.365 626.588 413.727 610.211 424.14C608.873 424.968 607.555 425.761 606.218 426.554Z" fill="black"/>
<path opacity="0.1" d="M606.218 426.554C588.948 436.761 569.49 443.795 555.079 457.501C528.121 483.035 527.493 524.154 548.654 553.36C569.814 582.566 609.177 600.134 649.289 604.169C691.327 608.375 735.432 598.496 768.43 575.928C801.428 553.36 822.386 518.085 822.366 482.087C822.346 446.088 800.678 410.227 765.228 390.555C732.797 372.608 686.381 367.487 653.931 388.021C637.513 398.365 626.588 413.727 610.211 424.14C608.873 424.968 607.555 425.761 606.218 426.554Z" fill="white"/>
<path opacity="0.1" d="M613.251 576.239L613.373 575.515C614.789 567.538 619.104 560.137 625.711 554.35C632.319 548.563 640.889 544.678 650.222 543.24C666.897 540.531 682.874 535.324 697.408 527.861C707.725 522.568 717.454 516.068 729.027 513.189C740.285 510.452 752.303 511.06 763.1 514.913C753.391 506.293 736.75 502.396 723.393 506.293C732.615 494.224 740.723 481.363 743.905 467.277C747.087 453.191 744.837 437.743 734.845 426.192C730.587 421.275 725.102 417.221 718.784 414.32C712.467 411.42 705.472 409.745 698.304 409.415C691.135 409.085 683.969 410.11 677.32 412.414C670.672 414.719 664.706 418.246 659.849 422.744C649.958 431.95 644.384 444.881 637.898 456.053C633.216 464.087 628.412 472.294 620.71 478.466C609.116 487.69 592.435 491.017 580.415 499.845C566.774 509.862 560.896 525.861 560.835 541.223C561.062 551.561 562.833 561.832 566.105 571.791C580.203 583.233 597.018 591.975 615.42 597.428C612.741 590.609 611.998 583.348 613.251 576.239Z" fill="black"/>
<g opacity="0.2">
<path d="M799.766 477.139C799.213 452.278 788.323 428.388 769.027 409.71C749.732 391.031 723.281 378.772 694.367 375.108C690.354 375.457 686.373 376.033 682.449 376.832C712.856 378.2 741.525 389.315 762.687 407.938C783.848 426.562 795.931 451.312 796.503 477.208C797.273 510.724 778.018 544.878 744.959 568.584C719.055 587.169 684.638 599.479 646.816 603.91L649.249 604.186C652.634 604.513 656.059 604.755 659.383 604.91C692.969 599.376 723.413 587.583 746.945 570.704C780.855 546.446 800.557 511.482 799.766 477.139Z" fill="white"/>
</g>
<path d="M569.227 565.049C570.441 570.567 571.119 576.16 571.254 581.773L575.915 580.273C578.125 579.563 580.53 579.422 582.833 579.866C585.136 580.311 587.235 581.322 588.867 582.773L589.111 582.98C589.942 583.723 591.078 584.164 592.282 584.212C593.487 584.261 594.667 583.912 595.576 583.238C596.065 582.879 596.46 582.438 596.739 581.942C597.018 581.447 597.174 580.908 597.198 580.359L597.826 563.463L569.227 565.049Z" fill="#FFA8A7"/>
<path d="M587.226 627.72C577.557 636.53 559.741 644.236 546.789 636.719L548.228 639.529C561.18 647.029 578.996 639.34 588.766 630.53C598.536 621.72 592.171 615.617 600.927 607.806C604.221 605.136 606.793 601.889 608.467 598.29C608.082 597.462 607.697 596.359 607.251 595.1C605.368 598.767 602.74 602.122 599.488 605.013C590.631 612.892 596.914 618.996 587.226 627.72Z" fill="#F5F5F5"/>
<path d="M602.346 585.962C600.861 584.158 599.82 582.117 599.286 579.963C599.199 579.46 598.984 578.981 598.655 578.557C598.325 578.134 597.89 577.778 597.38 577.514L597.279 580.359C597.248 581.147 596.943 581.909 596.404 582.55C595.865 583.191 595.116 583.683 594.25 583.963C593.383 584.243 592.439 584.299 591.536 584.124C590.632 583.949 589.81 583.551 589.171 582.98L588.928 582.773C587.295 581.322 585.197 580.311 582.894 579.866C580.591 579.422 578.185 579.563 575.976 580.273L571.233 581.79C570.53 582.018 569.926 582.425 569.505 582.956C569.084 583.487 568.866 584.115 568.882 584.756C569.186 596.307 562.801 611.634 556.194 620.065C549.363 622.478 543.444 630.409 546.465 636.202L546.769 636.788C559.721 644.305 577.537 636.599 587.205 627.789C596.874 618.978 590.61 612.892 599.367 605.082C602.619 602.191 605.247 598.836 607.13 595.169C606.04 591.928 604.43 588.83 602.346 585.962Z" fill="#455A64"/>
<path d="M583.395 602.634C583.785 602.797 584.235 602.824 584.648 602.708C585.061 602.592 585.404 602.342 585.604 602.014C585.805 601.691 585.847 601.314 585.722 600.965C585.596 600.616 585.314 600.324 584.935 600.152C582.096 598.789 578.892 598.073 575.632 598.073C572.372 598.073 569.167 598.789 566.328 600.152C566.044 601.065 565.74 601.962 565.416 602.858C568.135 601.503 571.22 600.771 574.371 600.731C577.521 600.692 580.63 601.348 583.395 602.634Z" fill="white"/>
<path d="M585.786 596.393C586.17 596.524 586.597 596.529 586.985 596.406C587.372 596.284 587.692 596.043 587.882 595.731C588.071 595.418 588.118 595.057 588.012 594.717C587.905 594.378 587.654 594.084 587.307 593.893C584.336 592.515 581.001 591.804 577.617 591.828C574.234 591.852 570.913 592.61 567.97 594.031C567.767 594.979 567.544 595.91 567.301 596.859C572.936 594.324 578.632 593.324 585.786 596.393Z" fill="white"/>
<path d="M580.78 608.858C581.173 609.02 581.625 609.044 582.038 608.924C582.452 608.805 582.793 608.552 582.989 608.22C583.183 607.895 583.22 607.518 583.091 607.17C582.962 606.822 582.678 606.53 582.3 606.358C579.524 605.02 576.394 604.303 573.203 604.276C570.012 604.249 566.865 604.912 564.058 606.203C563.653 607.186 563.207 608.134 562.761 609.082C565.484 607.721 568.577 606.985 571.736 606.945C574.894 606.906 578.011 607.565 580.78 608.858Z" fill="white"/>
<path d="M556.214 620.065C549.383 622.478 543.465 630.409 546.485 636.202L546.789 636.788C559.538 644.185 577.01 636.788 586.78 628.168C578.632 614.599 561.606 617.979 556.214 620.065Z" fill="white"/>
<path d="M577.922 614.927C578.306 615.058 578.733 615.062 579.12 614.94C579.508 614.817 579.827 614.577 580.017 614.264C580.207 613.952 580.253 613.591 580.147 613.251C580.041 612.911 579.79 612.618 579.442 612.427C576.664 611.091 573.533 610.378 570.342 610.353C567.151 610.329 564.005 610.995 561.2 612.289C560.612 613.358 560.025 614.392 559.417 615.392C565.072 612.858 570.767 611.841 577.922 614.927Z" fill="white"/>
<path d="M548.877 598.617C547.368 604.088 545.335 609.445 542.796 614.634L547.762 614.875C550.12 614.995 552.385 615.696 554.282 616.893C556.179 618.09 557.625 619.732 558.444 621.616V621.875C558.858 622.841 559.692 623.635 560.774 624.094C561.857 624.553 563.104 624.641 564.261 624.34C564.875 624.173 565.442 623.902 565.93 623.544C566.418 623.185 566.815 622.746 567.098 622.254L575.672 607.013L548.877 598.617Z" fill="#FFA8A7"/>
<path d="M535.58 662.201C522.547 666.942 502.582 667.873 494.312 656.546V659.615C502.582 670.925 522.547 669.959 535.58 665.27C548.613 660.58 545.715 652.805 557.43 648.65C561.706 647.33 565.598 645.243 568.842 642.529C568.842 641.616 569.065 640.495 569.247 639.185C565.79 641.901 561.787 644.067 557.43 645.581C545.755 649.736 548.613 657.477 535.58 662.201Z" fill="#F5F5F5"/>
<path d="M569.247 629.133C568.718 626.973 568.718 624.743 569.247 622.582C569.406 622.092 569.436 621.578 569.334 621.078C569.232 620.577 569.002 620.102 568.659 619.685L567.22 622.254C566.937 622.747 566.539 623.185 566.052 623.544C565.564 623.902 564.996 624.173 564.382 624.34C563.226 624.641 561.978 624.553 560.896 624.094C559.814 623.636 558.979 622.841 558.565 621.875V621.616C557.747 619.732 556.301 618.091 554.404 616.894C552.507 615.697 550.241 614.995 547.883 614.875L542.836 614.634C542.084 614.598 541.338 614.761 540.699 615.101C540.06 615.44 539.561 615.94 539.269 616.53C534.06 627.202 521.027 639.064 510.893 644.495C503.494 644.34 494.333 649.564 494.333 655.926V656.546C502.602 667.873 522.567 666.891 535.6 662.201C548.633 657.512 545.735 649.736 557.45 645.581C561.807 644.067 565.81 641.901 569.267 639.185C569.814 635.85 569.807 632.466 569.247 629.133Z" fill="#455A64"/>
<path d="M544.012 637.874C544.291 638.138 544.677 638.301 545.092 638.331C545.507 638.361 545.92 638.256 546.248 638.037C546.575 637.818 546.792 637.501 546.855 637.15C546.918 636.8 546.822 636.443 546.586 636.15C544.633 633.932 542.039 632.181 539.056 631.066C536.073 629.952 532.802 629.511 529.56 629.788C528.871 630.536 528.162 631.26 527.432 631.961C530.561 631.645 533.732 632.023 536.638 633.059C539.544 634.096 542.084 635.755 544.012 637.874Z" fill="white"/>
<path d="M549.16 632.978C549.437 633.264 549.836 633.444 550.27 633.48C550.703 633.515 551.135 633.403 551.471 633.168C551.803 632.935 552.015 632.602 552.064 632.239C552.114 631.875 551.995 631.51 551.735 631.219C549.674 628.935 546.961 627.137 543.853 625.997C540.745 624.856 537.346 624.41 533.979 624.702C533.351 625.496 532.682 626.289 531.952 627.064C538.377 626.685 544.073 627.72 549.16 632.978Z" fill="white"/>
<path d="M538.681 642.667C538.96 642.931 539.346 643.094 539.761 643.124C540.176 643.154 540.59 643.049 540.917 642.83C541.244 642.611 541.461 642.294 541.524 641.943C541.587 641.593 541.491 641.236 541.256 640.943C539.349 638.775 536.83 637.052 533.931 635.934C531.033 634.816 527.849 634.339 524.675 634.547C523.844 635.305 522.993 636.03 522.122 636.736C525.249 636.425 528.418 636.808 531.319 637.847C534.221 638.887 536.757 640.547 538.681 642.667Z" fill="white"/>
<path d="M510.872 644.495C503.474 644.34 494.312 649.564 494.312 655.925V656.546C502.42 667.701 521.939 666.891 534.972 662.408C533.979 647.184 516.791 644.426 510.872 644.495Z" fill="white"/>
<path d="M533.168 647.236C533.451 647.515 533.851 647.69 534.282 647.722C534.714 647.754 535.143 647.642 535.479 647.409C535.814 647.182 536.029 646.851 536.078 646.489C536.128 646.127 536.007 645.764 535.742 645.478C533.837 643.305 531.314 641.578 528.411 640.46C525.508 639.341 522.319 638.867 519.142 639.081C518.108 639.874 517.115 640.616 516.041 641.305C522.405 640.926 528.081 641.96 533.168 647.236Z" fill="white"/>
<path d="M625.453 454.415L560.207 485.328C554.306 488.139 549.586 492.449 546.708 497.655C543.829 502.861 542.936 508.702 544.154 514.361L556.822 572.377L546.444 600.427C555.403 610.651 575.956 611.168 575.956 611.168C587.428 591.6 595.86 583.29 602.306 566.894C608.751 550.498 613.17 539.171 613.17 539.171L667.349 526.585C679.739 523.722 690.835 517.764 699.203 509.481C707.572 501.198 712.827 490.971 714.292 480.121C715.224 473.139 715.265 468.38 715.265 468.38L625.453 454.415Z" fill="#7966FA"/>
<path opacity="0.3" d="M625.453 454.415L560.207 485.328C554.306 488.139 549.586 492.449 546.708 497.655C543.829 502.861 542.936 508.702 544.154 514.361L556.822 572.377L546.444 600.427C555.403 610.651 575.956 611.168 575.956 611.168C587.428 591.6 595.86 583.29 602.306 566.894C608.751 550.498 613.17 539.171 613.17 539.171L667.349 526.585C679.739 523.722 690.835 517.764 699.203 509.481C707.572 501.198 712.827 490.971 714.292 480.121C715.224 473.139 715.265 468.38 715.265 468.38L625.453 454.415Z" fill="black"/>
<path opacity="0.1" d="M625.453 454.415L560.207 485.328C554.306 488.139 549.586 492.449 546.708 497.655C543.829 502.861 542.936 508.702 544.154 514.361L556.822 572.377L546.444 600.427C555.403 610.651 575.956 611.168 575.956 611.168C587.428 591.6 595.86 583.29 602.306 566.894C608.751 550.498 613.17 539.171 613.17 539.171L667.349 526.585C679.739 523.722 690.835 517.764 699.203 509.481C707.572 501.198 712.827 490.971 714.292 480.121C715.224 473.139 715.265 468.38 715.265 468.38L625.453 454.415Z" fill="white"/>
<path opacity="0.2" d="M625.939 470.001C625.944 476.195 628.529 482.188 633.236 486.914L587.205 511.43C580.45 515.023 575.448 520.57 573.118 527.051L556.903 572.377L571.598 521.896C573.292 516.088 577.592 511.075 583.577 507.931L626.142 485.518C621.642 476.345 625.939 470.001 625.939 470.001Z" fill="black"/>
<path d="M582.28 390.693L567.605 401.969C558.221 391.779 545.634 384.9 534.627 370.625C531.466 367.177 531.79 360.401 529.641 356.919C527.939 354.195 524.979 350.022 523.743 347.798C523.635 347.59 523.473 347.405 523.269 347.257C523.065 347.11 522.825 347.003 522.566 346.945C522.307 346.887 522.036 346.879 521.773 346.923C521.51 346.966 521.262 347.059 521.047 347.195C518.027 349.16 519.669 353.746 521.291 358.556C523.216 364.246 513.183 356.539 511.764 355.229C505.359 350.16 499.866 337.73 495.549 338.971C491.232 340.212 494.637 346.402 494.637 346.402C490.583 347.126 492.144 352.574 492.144 352.574C489.772 356.143 490.441 361.643 495.326 366.763C498.873 370.47 508.46 375.573 513.446 378.073C515.515 379.123 517.286 380.548 518.635 382.245L549.971 422.003C551.396 423.8 553.235 425.333 555.378 426.508C557.52 427.683 559.92 428.476 562.433 428.838C564.946 429.201 567.519 429.126 569.997 428.618C572.475 428.11 574.805 427.179 576.848 425.882L598.191 412.296L582.28 390.693Z" fill="#FFA8A7"/>
<path opacity="0.3" d="M582.28 390.693L567.605 401.969C558.221 391.779 545.634 384.9 534.627 370.625C531.466 367.177 531.79 360.401 529.641 356.919C527.939 354.195 524.979 350.022 523.743 347.798C523.635 347.59 523.473 347.405 523.269 347.257C523.065 347.11 522.825 347.003 522.566 346.945C522.307 346.887 522.036 346.879 521.773 346.923C521.51 346.966 521.262 347.059 521.047 347.195C518.027 349.16 519.669 353.746 521.291 358.556C523.216 364.246 513.183 356.539 511.764 355.229C505.359 350.16 499.866 337.73 495.549 338.971C491.232 340.212 494.637 346.402 494.637 346.402C490.583 347.126 492.144 352.574 492.144 352.574C489.772 356.143 490.441 361.643 495.326 366.763C498.873 370.47 508.46 375.573 513.446 378.073C515.515 379.123 517.286 380.548 518.635 382.245L549.971 422.003C551.396 423.8 553.235 425.333 555.378 426.508C557.52 427.683 559.92 428.476 562.433 428.838C564.946 429.201 567.519 429.126 569.997 428.618C572.475 428.11 574.805 427.179 576.848 425.882L598.191 412.296L582.28 390.693Z" fill="black"/>
<path d="M629.77 359.47C613.839 358.884 592.698 378.987 579.098 391.038C581.724 400.572 587.98 409.1 596.894 415.296C608.313 408.457 619.288 401.096 629.77 393.245V359.47Z" fill="#455A64"/>
<path opacity="0.3" d="M629.77 359.47C613.839 358.884 592.698 378.987 579.098 391.038C581.724 400.572 587.98 409.1 596.894 415.296C608.313 408.457 619.288 401.096 629.77 393.245V359.47Z" fill="white"/>
<path d="M716.359 472.708C704.786 482.173 649.208 483.914 620.852 460.949C623.568 444.726 622.656 427.364 620.852 410.193C619.048 393.021 607.231 362.97 629.77 359.47C659.87 354.47 679.531 354.867 699.658 364.505C721.123 394.969 718.204 440.485 716.359 472.708Z" fill="#455A64"/>
<path d="M716.359 472.708C704.786 482.173 649.208 483.914 620.852 460.949C623.568 444.726 622.656 427.364 620.852 410.193C619.048 393.021 607.231 362.97 629.77 359.47C659.87 354.47 679.531 354.867 699.658 364.505C721.123 394.969 718.204 440.485 716.359 472.708Z" fill="#455A64"/>
<path opacity="0.2" d="M716.359 472.708C704.786 482.173 649.208 483.914 620.852 460.949C623.568 444.726 622.656 427.364 620.852 410.193C619.048 393.021 607.231 362.97 629.77 359.47C659.87 354.47 679.531 354.867 699.658 364.505C721.123 394.969 718.204 440.485 716.359 472.708Z" fill="white"/>
<path d="M671.585 493.104C671.635 493.349 671.635 493.6 671.585 493.845C671.51 494.047 671.401 494.239 671.261 494.414C671.088 494.62 670.891 494.81 670.673 494.983C670.394 495.183 670.096 495.361 669.781 495.517L622.048 519.103C621.609 519.313 621.148 519.486 620.669 519.62L620.142 519.758L619.453 519.913L618.602 520.034H618.399H617.244H616.859C616.481 520.051 616.102 520.051 615.724 520.034H615.541C615.167 520 614.794 519.948 614.426 519.878H614.224L613.271 519.637H613.089C612.723 519.521 612.37 519.377 612.035 519.206L533.269 480.535C532.955 480.379 532.656 480.2 532.378 480.001L532.155 479.794C532.008 479.67 531.873 479.538 531.749 479.397C531.687 479.315 531.633 479.228 531.587 479.138C531.493 479.021 531.418 478.894 531.364 478.759C531.353 478.667 531.353 478.575 531.364 478.483C531.353 478.357 531.353 478.23 531.364 478.104V480.483C531.353 480.609 531.353 480.736 531.364 480.863C531.385 481.099 531.484 481.326 531.648 481.518C531.694 481.607 531.748 481.694 531.81 481.776C531.929 481.915 532.065 482.042 532.215 482.156C532.285 482.228 532.359 482.298 532.438 482.362C532.711 482.574 533.01 482.759 533.33 482.914L612.096 521.585C612.43 521.756 612.783 521.901 613.15 522.016H613.332L614.285 522.258H614.487C614.855 522.327 615.227 522.379 615.602 522.413H615.785C616.163 522.43 616.542 522.43 616.92 522.413H617.122H618.278H618.48L619.332 522.275L620.021 522.137L620.548 521.999C621.026 521.865 621.488 521.692 621.926 521.482L669.558 498.017C669.873 497.867 670.171 497.694 670.45 497.5C670.663 497.323 670.859 497.133 671.038 496.931C671.178 496.756 671.288 496.564 671.362 496.362C671.392 496.179 671.392 495.993 671.362 495.81V493.224L671.585 493.104Z" fill="#E0E0E0"/>
<path opacity="0.2" d="M671.585 493.104C671.635 493.349 671.635 493.6 671.585 493.845C671.51 494.047 671.401 494.239 671.261 494.414C671.088 494.62 670.891 494.81 670.673 494.983C670.394 495.183 670.096 495.361 669.781 495.517L622.048 519.103C621.609 519.313 621.148 519.486 620.669 519.62L620.142 519.758L619.453 519.913L618.602 520.034H618.399H617.244H616.859C616.481 520.051 616.102 520.051 615.724 520.034H615.541C615.167 520 614.794 519.948 614.426 519.878H614.224L613.271 519.637H613.089C612.723 519.521 612.37 519.377 612.035 519.206L533.269 480.535C532.955 480.379 532.656 480.2 532.378 480.001L532.155 479.794C532.008 479.67 531.873 479.538 531.749 479.397C531.687 479.315 531.633 479.228 531.587 479.138C531.493 479.021 531.418 478.894 531.364 478.759C531.353 478.667 531.353 478.575 531.364 478.483C531.353 478.357 531.353 478.23 531.364 478.104V480.483C531.353 480.609 531.353 480.736 531.364 480.863C531.385 481.099 531.484 481.326 531.648 481.518C531.694 481.607 531.748 481.694 531.81 481.776C531.929 481.915 532.065 482.042 532.215 482.156C532.285 482.228 532.359 482.298 532.438 482.362C532.711 482.574 533.01 482.759 533.33 482.914L612.096 521.585C612.43 521.756 612.783 521.901 613.15 522.016H613.332L614.285 522.258H614.487C614.855 522.327 615.227 522.379 615.602 522.413H615.785C616.163 522.43 616.542 522.43 616.92 522.413H617.122H618.278H618.48L619.332 522.275L620.021 522.137L620.548 521.999C621.026 521.865 621.488 521.692 621.926 521.482L669.558 498.017C669.873 497.867 670.171 497.694 670.45 497.5C670.663 497.323 670.859 497.133 671.038 496.931C671.178 496.756 671.288 496.564 671.362 496.362C671.392 496.179 671.392 495.993 671.362 495.81V493.224L671.585 493.104Z" fill="black"/>
<path d="M531.263 478.794C531.317 478.928 531.392 479.056 531.486 479.173C531.532 479.263 531.586 479.349 531.648 479.432C531.771 479.572 531.907 479.705 532.053 479.828L532.276 480.035C532.555 480.235 532.853 480.414 533.168 480.569L611.933 519.24C612.268 519.412 612.621 519.556 612.987 519.671H613.17L614.123 519.913H614.325C614.693 519.983 615.065 520.035 615.44 520.068H615.622C616.001 520.086 616.379 520.086 616.758 520.068H616.96H618.115H618.318L619.17 519.947L619.859 519.792L620.386 519.654C620.864 519.521 621.326 519.347 621.764 519.137L669.558 495.655C669.873 495.499 670.172 495.32 670.45 495.121C670.668 494.948 670.865 494.757 671.038 494.552C671.178 494.377 671.288 494.185 671.362 493.983C671.412 493.737 671.412 493.487 671.362 493.241C671.275 492.746 671.043 492.277 670.69 491.877C670.336 491.477 669.87 491.157 669.335 490.948L590.57 452.277C589.056 451.615 587.378 451.269 585.675 451.269C583.972 451.269 582.294 451.615 580.78 452.277L533.148 475.725C532.592 475.942 532.112 476.279 531.757 476.702C531.401 477.126 531.182 477.621 531.121 478.138C531.11 478.265 531.11 478.392 531.121 478.518C531.156 478.614 531.203 478.707 531.263 478.794Z" fill="#E0E0E0"/>
<path d="M537.81 478.139L614.345 515.654L614.629 515.775H614.812L615.399 515.93H615.825H616.109H616.859C617.122 515.946 617.386 515.946 617.649 515.93H618.156L618.764 515.792C618.948 515.747 619.125 515.684 619.291 515.603L643.979 503.586L564.93 464.777L537.81 478.139Z" fill="#E0E0E0"/>
<path d="M610.616 467.811L596.225 475.018C596.001 475.124 595.815 475.279 595.685 475.467C595.556 475.655 595.487 475.869 595.487 476.087C595.487 476.305 595.556 476.519 595.685 476.707C595.815 476.895 596.001 477.05 596.225 477.156L617.751 487.724C618.117 487.906 618.533 488.002 618.957 488.002C619.38 488.002 619.797 487.906 620.163 487.724L634.554 480.535C634.772 480.425 634.953 480.269 635.079 480.082C635.205 479.894 635.271 479.682 635.271 479.466C635.271 479.25 635.205 479.038 635.079 478.851C634.953 478.663 634.772 478.507 634.554 478.397L613.028 467.811C612.662 467.63 612.246 467.534 611.822 467.534C611.398 467.534 610.982 467.63 610.616 467.811Z" fill="#E0E0E0"/>
<path opacity="0.4" d="M537.81 478.139L614.345 515.654L614.629 515.775H614.812L615.399 515.93H615.825H616.109H616.859C617.122 515.946 617.386 515.946 617.649 515.93H618.156L618.764 515.792C618.948 515.747 619.125 515.684 619.291 515.603L643.979 503.586L564.93 464.777L537.81 478.139Z" fill="black"/>
<path opacity="0.4" d="M610.616 467.811L596.225 475.018C596.001 475.124 595.815 475.279 595.685 475.467C595.556 475.655 595.487 475.869 595.487 476.087C595.487 476.305 595.556 476.519 595.685 476.707C595.815 476.895 596.001 477.05 596.225 477.156L617.751 487.724C618.117 487.906 618.533 488.002 618.957 488.002C619.38 488.002 619.797 487.906 620.163 487.724L634.554 480.535C634.772 480.425 634.953 480.269 635.079 480.082C635.205 479.894 635.271 479.682 635.271 479.466C635.271 479.25 635.205 479.038 635.079 478.851C634.953 478.663 634.772 478.507 634.554 478.397L613.028 467.811C612.662 467.63 612.246 467.534 611.822 467.534C611.398 467.534 610.982 467.63 610.616 467.811Z" fill="black"/>
<path d="M616.372 516.844L608.265 472.742C608.048 471.546 607.518 470.406 606.715 469.406C605.911 468.407 604.855 467.573 603.623 466.967L524.27 427.726C523.964 427.58 523.623 427.493 523.273 427.472C522.922 427.451 522.57 427.497 522.243 427.606L520.358 428.399L520.987 428.606C520.775 428.975 520.704 429.391 520.784 429.795L528.891 473.915C529.112 475.108 529.643 476.244 530.446 477.241C531.249 478.237 532.304 479.068 533.533 479.673L612.805 518.913C612.973 518.991 613.15 519.054 613.332 519.103V519.741L615.156 518.982C615.599 518.781 615.955 518.466 616.173 518.081C616.392 517.697 616.462 517.264 616.372 516.844Z" fill="#E0E0E0"/>
<path opacity="0.3" d="M616.372 516.844L608.265 472.742C608.048 471.546 607.518 470.406 606.715 469.406C605.911 468.407 604.855 467.573 603.623 466.967L524.27 427.726C523.964 427.58 523.623 427.493 523.273 427.472C522.922 427.451 522.57 427.497 522.243 427.606L520.358 428.399L520.987 428.606C520.775 428.975 520.704 429.391 520.784 429.795L528.891 473.915C529.112 475.108 529.643 476.244 530.446 477.241C531.249 478.237 532.304 479.068 533.533 479.673L612.805 518.913C612.973 518.991 613.15 519.054 613.332 519.103V519.741L615.156 518.982C615.599 518.781 615.955 518.466 616.173 518.081C616.392 517.697 616.462 517.264 616.372 516.844Z" fill="black"/>
<path d="M601.981 467.639L522.669 428.416C522.277 428.221 521.828 428.125 521.374 428.139C520.92 428.153 520.481 428.277 520.107 428.496C519.732 428.715 519.439 429.02 519.261 429.375C519.083 429.73 519.028 430.121 519.101 430.502L527.209 474.604C527.44 475.799 527.977 476.936 528.783 477.934C529.588 478.933 530.643 479.768 531.871 480.38L611.184 519.603C611.575 519.798 612.024 519.894 612.478 519.879C612.932 519.865 613.372 519.742 613.746 519.523C614.12 519.304 614.413 518.999 614.591 518.644C614.769 518.289 614.824 517.898 614.751 517.517L606.643 473.415C606.418 472.218 605.883 471.079 605.077 470.08C604.271 469.081 603.213 468.247 601.981 467.639Z" fill="#E0E0E0"/>
<path d="M563.551 468.777C565.562 469.85 567.295 471.259 568.647 472.919C569.998 474.578 570.94 476.454 571.416 478.432C571.943 481.88 569.267 483.156 565.335 481.259C563.326 480.189 561.592 478.783 560.241 477.127C558.889 475.47 557.946 473.597 557.471 471.622C557.025 468.173 559.721 466.915 563.551 468.777Z" fill="white"/>
<path d="M734.52 440.381L726.007 413.451L696.151 419.106L703.306 439.985L659.545 466.415L644.83 471.69C640.933 473.086 637.561 475.364 635.081 478.276L623.081 492.414C622.979 492.602 622.937 492.811 622.96 493.017C623.025 493.392 623.218 493.743 623.514 494.026C623.811 494.31 624.198 494.513 624.628 494.612C625.059 494.711 625.514 494.701 625.937 494.583C626.361 494.465 626.735 494.244 627.014 493.948C629.669 491.362 631.898 488.966 634.675 486.707L627.601 494.828C627.383 495.101 627.233 495.409 627.16 495.734C627.086 496.058 627.092 496.392 627.175 496.715C627.259 497.038 627.418 497.342 627.645 497.611C627.872 497.879 628.16 498.105 628.493 498.276C629.294 498.683 630.152 499.001 631.047 499.224C632.78 499.598 634.594 499.601 636.328 499.23C638.061 498.86 639.66 498.129 640.979 497.103L650.242 489.879L652.796 489.121C660.281 486.874 666.775 482.728 671.403 477.242L722.704 460.294C727.217 458.803 730.922 455.943 733.104 452.266C735.286 448.589 735.79 444.356 734.52 440.381Z" fill="#FFA8A7"/>
<path opacity="0.3" d="M734.52 440.381L726.007 413.451L696.151 419.106L703.306 439.985L659.545 466.415L644.83 471.69C640.933 473.086 637.561 475.364 635.081 478.276L623.081 492.414C622.979 492.602 622.937 492.811 622.96 493.017C623.025 493.392 623.218 493.743 623.514 494.026C623.811 494.31 624.198 494.513 624.628 494.612C625.059 494.711 625.514 494.701 625.937 494.583C626.361 494.465 626.735 494.244 627.014 493.948C629.669 491.362 631.898 488.966 634.675 486.707L627.601 494.828C627.383 495.101 627.233 495.409 627.16 495.734C627.086 496.058 627.092 496.392 627.175 496.715C627.259 497.038 627.418 497.342 627.645 497.611C627.872 497.879 628.16 498.105 628.493 498.276C629.294 498.683 630.152 499.001 631.047 499.224C632.78 499.598 634.594 499.601 636.328 499.23C638.061 498.86 639.66 498.129 640.979 497.103L650.242 489.879L652.796 489.121C660.281 486.874 666.775 482.728 671.403 477.242L722.704 460.294C727.217 458.803 730.922 455.943 733.104 452.266C735.286 448.589 735.79 444.356 734.52 440.381Z" fill="black"/>
<path d="M730.689 416.968L729.777 413.399C718.933 371.47 710.279 368.487 695.746 362.746C681.557 373.228 683.969 391.055 683.969 391.055L696.638 423.313L697.023 424.244C702.921 425.034 708.947 424.796 714.734 423.545C720.521 422.295 725.95 420.057 730.689 416.968Z" fill="#455A64"/>
<path opacity="0.3" d="M730.689 416.968L729.777 413.399C718.933 371.47 710.279 368.487 695.746 362.746C681.557 373.228 683.969 391.055 683.969 391.055L696.638 423.313L697.023 424.244C702.921 425.034 708.947 424.796 714.734 423.545C720.521 422.295 725.95 420.057 730.689 416.968Z" fill="white"/>
<path d="M675.517 329.195C678.54 321.594 680.134 313.634 680.24 305.61C680.24 301.334 679.733 296.662 676.186 293.541C671.95 289.852 664.694 289.886 659.282 292.214C653.87 294.541 649.897 298.662 646.087 302.662C647.963 309.644 650.765 316.423 654.438 322.868C656.343 326.006 658.653 329.195 662.342 330.799C666.031 332.402 672.234 331.368 675.517 329.195Z" fill="#455A64"/>
<path d="M648.742 378.452C641.465 382.366 632.02 375.108 640.472 364.522C640.526 364.468 640.561 364.402 640.574 364.332V346.695L668.018 333.816L668.646 357.384C665.707 364.677 655.066 375.039 648.742 378.452Z" fill="#FFA8A7"/>
<path opacity="0.3" d="M648.742 378.452C641.465 382.366 632.02 375.108 640.472 364.522C640.526 364.468 640.561 364.402 640.574 364.332V346.695L668.018 333.816L668.646 357.384C665.707 364.677 655.066 375.039 648.742 378.452Z" fill="black"/>
<path opacity="0.2" d="M654.701 352.333C650.12 354.212 644.404 356.108 640.513 357.332V346.695L667.957 333.816C667.795 345.488 662.322 349.195 654.701 352.333Z" fill="black"/>
<path d="M616.616 301.455C615.598 313.073 615.788 324.744 617.183 336.333C617.465 338.716 618.327 341.023 619.714 343.106C621.102 345.19 622.984 347.005 625.242 348.436C627.5 349.866 630.083 350.881 632.827 351.415C635.572 351.95 638.417 351.992 641.182 351.539C645.681 350.746 649.978 349.815 653.627 349.005C656.869 348.257 659.815 346.78 662.154 344.729C664.494 342.678 666.141 340.13 666.923 337.35L667.937 333.764C669.143 335.05 670.822 335.953 672.704 336.328C674.587 336.703 676.563 336.529 678.314 335.833C680.071 335.134 681.595 334.073 682.746 332.745C683.896 331.416 684.638 329.864 684.902 328.23C685.25 326.618 685.082 324.957 684.415 323.42C683.717 321.894 682.352 320.658 680.605 319.972C678.997 319.5 677.257 319.46 675.622 319.858C673.987 320.256 672.535 321.072 671.463 322.196C669.355 324.479 668.074 327.234 667.775 330.126C662.717 325.286 660.122 318.937 660.559 312.472C657.996 312.243 655.626 311.211 653.911 309.575C653.195 308.762 652.676 307.835 652.384 306.85C652.091 305.864 652.032 304.839 652.208 303.834C641.486 308.403 626.689 307.162 616.616 301.455Z" fill="#FFA8A7"/>
<path opacity="0.3" d="M616.616 301.455C615.598 313.073 615.788 324.744 617.183 336.333C617.465 338.716 618.327 341.023 619.714 343.106C621.102 345.19 622.984 347.005 625.242 348.436C627.5 349.866 630.083 350.881 632.827 351.415C635.572 351.95 638.417 351.992 641.182 351.539C645.681 350.746 649.978 349.815 653.627 349.005C656.869 348.257 659.815 346.78 662.154 344.729C664.494 342.678 666.141 340.13 666.923 337.35L667.937 333.764C669.143 335.05 670.822 335.953 672.704 336.328C674.587 336.703 676.563 336.529 678.314 335.833C680.071 335.134 681.595 334.073 682.746 332.745C683.896 331.416 684.638 329.864 684.902 328.23C685.25 326.618 685.082 324.957 684.415 323.42C683.717 321.894 682.352 320.658 680.605 319.972C678.997 319.5 677.257 319.46 675.622 319.858C673.987 320.256 672.535 321.072 671.463 322.196C669.355 324.479 668.074 327.234 667.775 330.126C662.717 325.286 660.122 318.937 660.559 312.472C657.996 312.243 655.626 311.211 653.911 309.575C653.195 308.762 652.676 307.835 652.384 306.85C652.091 305.864 652.032 304.839 652.208 303.834C641.486 308.403 626.689 307.162 616.616 301.455Z" fill="black"/>
<path d="M635.77 320.972L626.243 330.799L635 333.419L635.77 320.972Z" fill="#F28F8F"/>
<path opacity="0.3" d="M635.77 320.972L626.243 330.799L635 333.419L635.77 320.972Z" fill="black"/>
<path d="M642.986 338.299L635.628 340.212C636.094 340.952 636.831 341.542 637.727 341.894C638.623 342.245 639.63 342.339 640.594 342.161C641.455 341.85 642.164 341.296 642.6 340.592C643.035 339.889 643.172 339.078 642.986 338.299Z" fill="#F28F8F"/>
<path opacity="0.4" d="M642.986 338.299L635.628 340.212C636.094 340.952 636.831 341.542 637.727 341.894C638.623 342.245 639.63 342.339 640.594 342.161C641.455 341.85 642.164 341.296 642.6 340.592C643.035 339.889 643.172 339.078 642.986 338.299Z" fill="black"/>
<path d="M638.182 342.04C638.955 342.276 639.793 342.318 640.594 342.16C641.275 341.941 641.865 341.556 642.29 341.053C642.715 340.55 642.957 339.952 642.986 339.333C642.003 339.204 640.998 339.356 640.128 339.764C639.157 340.28 638.459 341.096 638.182 342.04Z" fill="#F28F8F"/>
<path d="M648.742 323.127C648.713 323.566 648.532 323.987 648.222 324.339C647.911 324.69 647.485 324.956 646.998 325.101C646.51 325.247 645.983 325.267 645.482 325.157C644.981 325.048 644.53 324.815 644.185 324.488C643.84 324.161 643.617 323.754 643.543 323.319C643.47 322.884 643.55 322.44 643.773 322.043C643.996 321.647 644.352 321.315 644.796 321.091C645.241 320.866 645.753 320.759 646.269 320.782C646.613 320.797 646.949 320.87 647.26 320.997C647.57 321.123 647.848 321.3 648.078 321.518C648.307 321.736 648.484 321.99 648.598 322.266C648.712 322.542 648.761 322.835 648.742 323.127Z" fill="#263238"/>
<path d="M626.851 321.403C626.827 321.843 626.649 322.266 626.341 322.62C626.032 322.974 625.608 323.242 625.12 323.39C624.633 323.539 624.104 323.56 623.602 323.453C623.1 323.346 622.647 323.114 622.3 322.787C621.953 322.461 621.727 322.054 621.652 321.618C621.578 321.182 621.656 320.737 621.879 320.34C622.102 319.942 622.458 319.61 622.903 319.385C623.348 319.159 623.862 319.052 624.379 319.075C625.069 319.106 625.716 319.369 626.18 319.805C626.643 320.241 626.884 320.815 626.851 321.403Z" fill="#263238"/>
<path d="M624.966 312.455L618.886 315.661C618.672 315.037 618.688 314.373 618.93 313.757C619.173 313.14 619.631 312.602 620.244 312.213C620.975 311.865 621.809 311.702 622.647 311.745C623.484 311.787 624.289 312.034 624.966 312.455Z" fill="#263238"/>
<path d="M647.262 313.196L652.857 316.868C653.118 316.281 653.172 315.641 653.009 315.028C652.847 314.415 652.477 313.856 651.944 313.42C651.263 313.022 650.466 312.791 649.64 312.751C648.815 312.712 647.992 312.865 647.262 313.196Z" fill="#263238"/>
<path d="M653.465 303.041C653.151 304.614 652.273 306.065 650.951 307.196C650.271 307.761 649.466 308.204 648.582 308.5C647.697 308.796 646.753 308.939 645.803 308.92C644.846 308.904 643.909 308.682 643.08 308.275C642.25 307.868 641.556 307.29 641.06 306.593C640.364 307.412 639.425 308.058 638.339 308.467C637.253 308.876 636.058 309.033 634.878 308.92C633.639 308.836 632.444 308.489 631.403 307.911C630.362 307.332 629.508 306.541 628.919 305.61C628.121 306.593 626.997 307.351 625.69 307.787C624.383 308.223 622.952 308.318 621.581 308.058C620.249 307.761 619.055 307.125 618.16 306.234C617.265 305.344 616.712 304.241 616.575 303.076C614.355 303.548 612.005 303.263 610.028 302.283C609.055 301.783 608.254 301.073 607.706 300.225C607.158 299.378 606.882 298.422 606.907 297.455C606.972 296.497 607.404 295.583 608.135 294.851C608.867 294.12 609.859 293.612 610.961 293.404C610.313 292.255 610.129 290.957 610.437 289.71C610.745 288.463 611.527 287.338 612.663 286.507C613.818 285.698 615.26 285.242 616.756 285.214C618.253 285.186 619.717 285.587 620.913 286.352C620.941 285.513 621.247 284.697 621.795 283.998C622.344 283.3 623.113 282.747 624.014 282.404C624.931 282.093 625.934 282.012 626.904 282.171C627.874 282.33 628.77 282.722 629.486 283.3C629.674 281.836 630.399 280.458 631.558 279.363C632.718 278.269 634.253 277.512 635.946 277.201C637.64 276.89 639.405 277.041 640.992 277.631C642.58 278.221 643.908 279.222 644.789 280.49C645.456 279.51 646.432 278.707 647.607 278.174C648.782 277.641 650.109 277.398 651.438 277.473C652.719 277.559 653.944 277.957 654.965 278.621C655.986 279.285 656.76 280.185 657.194 281.214C658.149 279.981 659.537 279.034 661.16 278.509C662.783 277.984 664.559 277.907 666.237 278.288C667.914 278.67 669.408 279.491 670.506 280.635C671.604 281.779 672.251 283.188 672.355 284.663C673.356 283.941 674.644 283.574 675.953 283.638C677.262 283.703 678.493 284.193 679.389 285.007C680.227 285.867 680.734 286.926 680.839 288.04C680.944 289.154 680.643 290.268 679.976 291.231C679.279 292.173 678.334 292.964 677.215 293.542C676.097 294.119 674.835 294.468 673.531 294.559C674.133 295.826 674.175 297.236 673.649 298.528C673.124 299.82 672.066 300.906 670.671 301.585C669.276 302.264 667.64 302.491 666.064 302.223C664.488 301.955 663.08 301.211 662.099 300.128C662.239 301.061 662.005 302.008 661.435 302.815C660.865 303.622 659.993 304.242 658.957 304.576C657.974 304.893 656.892 304.913 655.892 304.634C654.893 304.355 654.036 303.793 653.465 303.041Z" fill="#263238"/>
</svg>
