<svg width="270" height="216" viewBox="0 0 270 216" fill="none" xmlns="http://www.w3.org/2000/svg">
<g clip-path="url(#clip0_1_20335)">
<rect x="0.59375" y="0.328125" width="268.797" height="67.1875" rx="33.5938" fill="#E9C0E9"/>
<g clip-path="url(#clip1_1_20335)">
<path fill-rule="evenodd" clip-rule="evenodd" d="M59.2731 22.1175C60.8856 22.539 62.1499 23.8216 62.5714 25.4158C63.3776 28.3476 63.3776 34.4678 63.3776 34.4678C63.3776 34.4678 63.3776 40.5696 62.5897 43.5015C62.3749 44.2959 61.9556 45.0201 61.3737 45.6021C60.7918 46.184 60.0675 46.6033 59.2731 46.8181C56.3413 47.606 44.614 47.606 44.614 47.606C44.614 47.606 32.8684 47.606 29.9366 46.8181C29.1443 46.6049 28.4216 46.1883 27.8398 45.6098C27.2581 45.0313 26.8376 44.3108 26.62 43.5198C25.832 40.5696 25.832 34.4495 25.832 34.4495C25.832 34.4495 25.832 28.3476 26.62 25.4158C27.0414 23.8033 28.3241 22.5206 29.9183 22.0992C32.8684 21.3296 44.614 21.3296 44.614 21.3296C44.614 21.3296 56.3596 21.3296 59.2731 22.1175ZM50.6059 34.4678L40.8393 40.0932V28.8424L50.6059 34.4678Z" fill="#7966FA"/>
</g>
<rect opacity="0.25" x="89.2812" y="27.2031" width="86.0156" height="13.4375" rx="6.71875" fill="#7966FA"/>
</g>
<g clip-path="url(#clip2_1_20335)">
<rect x="0.59375" y="74.2344" width="268.797" height="67.1875" rx="33.5938" fill="#E9C0E9"/>
<rect opacity="0.25" x="89.2812" y="101.109" width="129.016" height="13.4375" rx="6.71875" fill="#7966FA"/>
<g clip-path="url(#clip3_1_20335)">
<path d="M53.0587 120.716L31.9375 92.6875H38.9413L60.0625 120.716H53.0587Z" stroke="#7966FA" stroke-width="1.5" stroke-linecap="round" stroke-linejoin="round"/>
<path d="M59.0681 92.6875L47.9346 104.627" stroke="#7966FA" stroke-width="1.5" stroke-linecap="round" stroke-linejoin="round"/>
<path d="M32.9316 120.716L44.0568 108.786" stroke="#7966FA" stroke-width="1.5" stroke-linecap="round" stroke-linejoin="round"/>
</g>
</g>
<g clip-path="url(#clip4_1_20335)">
<rect x="0.59375" y="148.141" width="268.797" height="67.1875" rx="33.5938" fill="#E9C0E9"/>
<rect opacity="0.25" x="89.2812" y="175.016" width="64.5" height="13.4375" rx="6.71875" fill="#7966FA"/>
<path d="M47.9956 167C39.8282 167.003 33.0046 173.837 33.0047 182C33.0047 184.943 33.8803 187.85 35.5146 190.308L33 197L41.4206 195.477C43.4775 196.482 45.7363 196.986 47.9956 196.988C56.1699 196.993 63 190.168 63 182C63 173.841 56.1673 166.995 47.9956 167Z" stroke="#7966FA" stroke-width="1.71" stroke-linecap="round" stroke-linejoin="round"/>
<path d="M48.8212 188.606C50.8981 189.939 53.0654 188.914 54.5417 187.782C55.4911 187.055 55.4604 185.679 54.6416 184.807L52.8391 182.888C52.1891 183.538 50.9224 183.86 50.0423 183.592C48.1506 183.016 47.3566 182.03 46.7132 181.027C45.9743 179.876 46.8088 178.156 47.4588 177.506L45.47 175.69C44.7114 174.997 43.5603 174.879 42.8871 175.655C41.4568 177.303 40.5464 179.865 41.5872 181.487C43.4251 184.35 45.9584 186.768 48.8212 188.606Z" stroke="#7966FA" stroke-width="1.71" stroke-linecap="round" stroke-linejoin="round"/>
</g>
<defs>
<clipPath id="clip0_1_20335">
<rect x="0.59375" y="0.328125" width="268.797" height="67.1875" rx="33.5938" fill="white"/>
</clipPath>
<clipPath id="clip1_1_20335">
<rect width="40" height="36" fill="white" transform="translate(24 14)"/>
</clipPath>
<clipPath id="clip2_1_20335">
<rect x="0.59375" y="74.2344" width="268.797" height="67.1875" rx="33.5938" fill="white"/>
</clipPath>
<clipPath id="clip3_1_20335">
<rect width="30" height="30" fill="white" transform="translate(31 91.75)"/>
</clipPath>
<clipPath id="clip4_1_20335">
<rect x="0.59375" y="148.141" width="268.797" height="67.1875" rx="33.5938" fill="white"/>
</clipPath>
</defs>
</svg>
